<svg xmlns="http://www.w3.org/2000/svg" viewBox="-6 -26 182 182" fill="none">
  <path d="M104.591 12.9995C109.284 17.1945 112.488 22.8684 114.066 28.9818C114.066 29.3654 114.066 29.749 114.066 30.1442C115.837 30.6619 116.805 30.1773 118.425 29.3711C123.804 26.7846 130.007 27.0495 135.601 28.6912C136.709 29.0928 137.726 29.5767 138.759 30.1442C139.023 30.279 139.288 30.4139 139.56 30.5528C144.107 32.9359 147.491 36.3779 149.957 40.8959C150.092 41.1173 150.227 41.3387 150.367 41.5668C152.911 46.039 153.648 52.2503 152.458 57.2416C152.109 58.5508 151.68 59.8177 151.177 61.0736C150.865 61.9753 150.777 62.4217 150.796 63.3359C150.804 63.6981 150.811 64.0603 150.819 64.4335C151.117 64.5811 151.415 64.7287 151.723 64.8808C159.611 68.808 165.706 74.1241 168.621 82.7406C170.907 90.5935 170.418 98.4202 166.647 105.697C165.668 107.505 164.506 109.09 163.165 110.637C162.996 110.85 162.826 111.063 162.651 111.283C158.681 116.13 153.247 118.821 147.373 120.517C147.114 120.596 146.855 120.674 146.588 120.755C144.358 121.386 142.27 121.526 139.961 121.498C139.607 121.495 139.252 121.492 138.887 121.489C136.348 121.445 134.024 121.262 131.581 120.517C131.297 120.433 131.297 120.433 131.007 120.347C126.582 119.004 122.744 116.876 119.234 113.833C119.02 113.68 118.805 113.526 118.584 113.368C118.419 113.234 118.255 113.1 118.086 112.962C118.086 112.77 118.086 112.578 118.086 112.381C116.942 112.028 116.942 112.028 115.789 112.09C114.869 112.836 114.203 113.76 113.492 114.705C106.593 122.961 97.1769 127.944 86.5016 128.944C75.0681 129.534 65.2492 125.432 56.8197 117.738C55.6 116.612 54.571 115.423 53.6534 114.031C53.213 113.503 53.213 113.503 52.5453 113.238C51.3553 113.26 50.6694 113.958 49.785 114.687C46.6291 117.154 43.2185 118.979 39.4125 120.226C39.0675 120.341 38.7226 120.455 38.3671 120.573C30.4204 122.944 21.9018 121.254 14.7662 117.329C13.2892 116.486 11.9752 115.541 10.6996 114.415C10.4642 114.211 10.2288 114.008 9.98622 113.798C4.53625 108.976 0.531088 102.182 0.0211774 94.7282C-0.000903796 93.8976 -0.00397233 93.07 0.00400293 92.2392C0.0059461 91.9456 0.00788927 91.652 0.00989132 91.3494C0.116107 83.5679 3.32946 76.3073 8.82895 70.8584C11.8658 67.9542 15.5163 66.1134 19.3134 64.4335C19.483 62.9574 19.1848 61.9609 18.6315 60.5832C16.4073 54.9653 16.9027 48.5229 19.0263 42.93C21.9326 36.2722 26.9655 31.7456 33.5622 29.0181C39.7064 26.8104 45.2435 27.3075 51.39 29.1089C52.196 29.3097 52.9429 29.3402 53.7689 29.2724C53.8163 28.9008 53.8637 28.5292 53.9125 28.1464C54.9689 22.868 58.1639 17.9673 61.8085 14.1618C61.9595 13.9876 62.1106 13.8135 62.2661 13.634C73.2255 1.43909 93.0256 3.02665 104.591 12.9995Z" fill="#9fb3dd"/>
  <path d="M67.1797 10.3477C77.8288 -1.36096 97.4489 -0.0319395 109.062 9.8623C113.606 13.8861 116.761 19.3361 118.356 25.2656V27.7188L119.802 28.1367C121.027 28.4905 122.098 28.5273 123.17 28.2773C124.13 28.0534 125.022 27.6051 125.813 27.2158C130.881 24.8085 136.859 24.9902 142.461 26.6035C143.491 26.976 144.453 27.4271 145.458 27.9727L145.484 27.9873L145.512 28.001C145.784 28.1383 146.057 28.2747 146.337 28.416V28.417C150.765 30.7103 154.055 34.0083 156.477 38.3916L156.5 38.4346L156.525 38.4756C156.657 38.6892 156.789 38.9029 156.925 39.1221H156.926C159.332 43.3013 160.062 49.2315 158.928 53.9688C158.584 55.2397 158.161 56.4763 157.661 57.7109L157.644 57.7549L157.628 57.7998C157.233 58.9256 157.088 59.6302 157.113 60.8613C157.121 61.2389 157.129 61.6169 157.137 62.0059L157.162 63.2256L158.258 63.7617C158.571 63.9148 158.885 64.067 159.207 64.2246V64.2256C167.23 68.1719 173.165 73.3695 176.017 81.6699C178.277 89.3826 177.774 96.9749 174.076 104.036C173.132 105.758 172.001 107.288 170.66 108.817L170.632 108.85L170.605 108.882C170.43 109.1 170.253 109.318 170.072 109.543C166.24 114.161 160.938 116.806 154.952 118.514L154.938 118.518L154.926 118.521C154.659 118.602 154.407 118.677 154.134 118.759C152.034 119.345 150.041 119.488 147.704 119.46H147.697C147.329 119.457 146.96 119.453 146.58 119.45H146.581C143.973 119.406 141.734 119.221 139.415 118.522L139.407 118.52L139.4 118.518L138.795 118.34H138.794C134.4 117.021 130.6 114.939 127.111 111.95L127.041 111.89L126.965 111.836L126.599 111.576V110.473L125.182 110.041C124.644 109.877 124.152 109.719 123.639 109.655C123.119 109.59 122.61 109.624 122.068 109.653L121.426 109.688L120.924 110.091C119.746 111.035 118.897 112.195 118.202 113.109C111.271 121.292 101.842 126.225 91.1289 127.227C80.0378 127.782 70.4545 124.008 62.0986 116.767L61.293 116.055C60.1203 114.984 59.1458 113.868 58.2764 112.564L58.2139 112.471L58.1406 112.385C57.9718 112.185 57.6747 111.81 57.2725 111.525C56.8812 111.249 56.4316 111.086 56.1738 110.985L55.8037 110.841L55.4062 110.848C53.319 110.886 52.002 112.205 51.2812 112.796C48.1402 115.217 44.7549 117.006 40.9697 118.231L40.9639 118.233C40.6138 118.348 40.2632 118.461 39.9033 118.579C32.1555 120.859 23.7311 119.261 16.5557 115.367C15.1219 114.558 13.8486 113.653 12.6045 112.567L12.5967 112.561L12.5879 112.554L11.8359 111.911C6.41216 107.163 2.52475 100.562 2.02051 93.4482C1.99918 92.6287 1.99582 91.807 2.00391 90.9746V90.9678C2.00596 90.6618 2.00863 90.3553 2.01074 90.04L2.00977 90.0391C2.11825 82.4914 5.26964 75.4302 10.7002 70.1064C13.6364 67.3359 17.2129 65.5319 21.1797 63.7979L22.2324 63.3369L22.3652 62.1963C22.6015 60.1647 22.144 58.7529 21.5117 57.1973C19.408 51.9383 19.8329 45.7834 21.9229 40.3135C24.7527 33.9358 29.6231 29.5771 36.1299 26.9092C42.0679 24.8134 47.4423 25.2537 53.668 27.0566L53.707 27.0684L53.7461 27.0781C54.8524 27.3504 55.8636 27.3834 56.8955 27.2998L58.5107 27.1689L58.7178 25.5625C58.7645 25.2006 58.8114 24.8383 58.8594 24.4668C59.8854 19.4891 62.9812 14.733 66.6533 10.9443L66.6875 10.9082L66.7207 10.8711C66.8724 10.6982 67.0229 10.5243 67.1787 10.3467L67.1797 10.3477Z" stroke="#ffffff" stroke-width="4"/>
  <path d="M62 63 Q70 56.5 78 63" stroke="#1b1b1f" stroke-width="5" fill="none" stroke-linecap="round"/>
  <path d="M97 61 Q105 54.5 113 61" stroke="#1b1b1f" stroke-width="5" fill="none" stroke-linecap="round"/>
</svg>
