<svg width="46" height="46" viewBox="0 0 46 46" fill="none" xmlns="http://www.w3.org/2000/svg">
<foreignObject x="-48" y="-50" width="142" height="142"><div xmlns="http://www.w3.org/1999/xhtml" style="backdrop-filter:blur(25px);clip-path:url(#bgblur_0_40000205_1493_clip_path);height:100%;width:100%"></div></foreignObject><g filter="url(#filter0_d_40000205_1493)" data-figma-bg-blur-radius="50">
<rect x="2" y="42" width="42" height="42" rx="10" transform="rotate(-90 2 42)" fill="white" fill-opacity="0.1" shape-rendering="crispEdges"/>
<rect x="2.5" y="41.5" width="41" height="41" rx="9.5" transform="rotate(-90 2.5 41.5)" stroke="white" stroke-opacity="0.1" shape-rendering="crispEdges"/>
<path d="M16.6 28.8539C17.0821 29 17.7332 29 18.84 29H27.16C28.2668 29 28.9179 29 29.4 28.8539M16.6 28.8539C16.4967 28.8226 16.4011 28.7846 16.3104 28.7384C15.8588 28.5083 15.4917 28.1412 15.2616 27.6896C15 27.1762 15 26.5041 15 25.16V16.84C15 15.4959 15 14.8238 15.2616 14.3104C15.4917 13.8588 15.8588 13.4917 16.3104 13.2616C16.8238 13 17.4959 13 18.84 13H27.16C28.5041 13 29.1762 13 29.6896 13.2616C30.1412 13.4917 30.5083 13.8588 30.7384 14.3104C31 14.8238 31 15.4959 31 16.84V25.16C31 26.5041 31 27.1762 30.7384 27.6896C30.5083 28.1412 30.1412 28.5083 29.6896 28.7384C29.5989 28.7846 29.5033 28.8226 29.4 28.8539M16.6 28.8539C16.6003 28.2065 16.6042 27.8639 16.6615 27.5757C16.914 26.3063 17.9063 25.314 19.1757 25.0615C19.4848 25 19.8566 25 20.6 25H25.4C26.1434 25 26.5152 25 26.8243 25.0615C28.0937 25.314 29.086 26.3063 29.3385 27.5757C29.3958 27.8639 29.3997 28.2065 29.4 28.8539M26.2 19C26.2 20.7673 24.7673 22.2 23 22.2C21.2327 22.2 19.8 20.7673 19.8 19C19.8 17.2327 21.2327 15.8 23 15.8C24.7673 15.8 26.2 17.2327 26.2 19Z" stroke="white" stroke-linecap="round" stroke-linejoin="round"/>
</g>
<defs>
<filter id="filter0_d_40000205_1493" x="-48" y="-50" width="142" height="142" filterUnits="userSpaceOnUse" color-interpolation-filters="sRGB">
<feFlood flood-opacity="0" result="BackgroundImageFix"/>
<feColorMatrix in="SourceAlpha" type="matrix" values="0 0 0 0 0 0 0 0 0 0 0 0 0 0 0 0 0 0 127 0" result="hardAlpha"/>
<feOffset dy="2"/>
<feGaussianBlur stdDeviation="1"/>
<feComposite in2="hardAlpha" operator="out"/>
<feColorMatrix type="matrix" values="0 0 0 0 0 0 0 0 0 0 0 0 0 0 0 0 0 0 0.18 0"/>
<feBlend mode="normal" in2="BackgroundImageFix" result="effect1_dropShadow_40000205_1493"/>
<feBlend mode="normal" in="SourceGraphic" in2="effect1_dropShadow_40000205_1493" result="shape"/>
</filter>
<clipPath id="bgblur_0_40000205_1493_clip_path" transform="translate(48 50)"><rect x="2" y="42" width="42" height="42" rx="10" transform="rotate(-90 2 42)"/>
</clipPath></defs>
</svg>
