<svg width="46" height="46" viewBox="0 0 46 46" fill="none" xmlns="http://www.w3.org/2000/svg">
<foreignObject x="-48" y="-50" width="142" height="142"><div xmlns="http://www.w3.org/1999/xhtml" style="backdrop-filter:blur(25px);clip-path:url(#bgblur_0_40000205_1516_clip_path);height:100%;width:100%"></div></foreignObject><g filter="url(#filter0_d_40000205_1516)" data-figma-bg-blur-radius="50">
<rect x="2" y="42" width="42" height="42" rx="10" transform="rotate(-90 2 42)" fill="white" fill-opacity="0.1" shape-rendering="crispEdges"/>
<rect x="2.5" y="41.5" width="41" height="41" rx="9.5" transform="rotate(-90 2.5 41.5)" stroke="white" stroke-opacity="0.1" shape-rendering="crispEdges"/>
</g>
<path d="M13 31.1667V13.9167C13 13.3896 13.1877 12.9384 13.563 12.563C13.9384 12.1877 14.3896 12 14.9167 12H30.25C30.7771 12 31.2283 12.1877 31.6036 12.563C31.979 12.9384 32.1667 13.3896 32.1667 13.9167V25.4167C32.1667 25.9437 31.979 26.395 31.6036 26.7703C31.2283 27.1457 30.7771 27.3333 30.25 27.3333H16.8333L13 31.1667ZM16.8333 23.5H24.5V21.5833H16.8333V23.5ZM16.8333 20.625H28.3333V18.7083H16.8333V20.625ZM16.8333 17.75H28.3333V15.8333H16.8333V17.75Z" fill="white"/>
<defs>
<filter id="filter0_d_40000205_1516" x="-48" y="-50" width="142" height="142" filterUnits="userSpaceOnUse" color-interpolation-filters="sRGB">
<feFlood flood-opacity="0" result="BackgroundImageFix"/>
<feColorMatrix in="SourceAlpha" type="matrix" values="0 0 0 0 0 0 0 0 0 0 0 0 0 0 0 0 0 0 127 0" result="hardAlpha"/>
<feOffset dy="2"/>
<feGaussianBlur stdDeviation="1"/>
<feComposite in2="hardAlpha" operator="out"/>
<feColorMatrix type="matrix" values="0 0 0 0 0 0 0 0 0 0 0 0 0 0 0 0 0 0 0.18 0"/>
<feBlend mode="normal" in2="BackgroundImageFix" result="effect1_dropShadow_40000205_1516"/>
<feBlend mode="normal" in="SourceGraphic" in2="effect1_dropShadow_40000205_1516" result="shape"/>
</filter>
<clipPath id="bgblur_0_40000205_1516_clip_path" transform="translate(48 50)"><rect x="2" y="42" width="42" height="42" rx="10" transform="rotate(-90 2 42)"/>
</clipPath></defs>
</svg>
