<svg width="502" height="159" viewBox="0 0 502 159" fill="none" xmlns="http://www.w3.org/2000/svg">
<path d="M85.6844 0.00278719C85.9328 0.00186741 86.1812 0.000947643 86.4371 0C88.5114 0.00664471 90.5009 0.202991 92.5272 0.641925C92.6835 0.675515 92.8398 0.709106 93.0008 0.743714C102.736 2.91501 111.427 8.81545 116.9 17.1547C120.932 23.5186 122.52 30.57 122.919 37.9987C122.941 38.3808 122.962 38.7628 122.984 39.1449C123.04 40.1421 123.096 41.1395 123.15 42.1369C123.238 43.7377 123.328 45.3385 123.418 46.9392C123.449 47.4954 123.48 48.0516 123.51 48.6079C123.529 48.9498 123.548 49.2918 123.567 49.6338C123.576 49.7867 123.584 49.9396 123.592 50.0972C123.643 50.9944 123.74 51.8703 123.879 52.7582C124.021 52.6311 124.164 52.504 124.311 52.3731C125.825 51.0625 127.361 50.0432 129.138 49.1222C129.422 48.9722 129.422 48.9722 129.713 48.8192C132.292 47.5484 135.184 47.0617 137.975 47.8344C140.372 48.6525 141.961 50.0784 143.145 52.3037C143.97 54.045 144.406 55.8873 144.511 57.8082C144.527 58.0754 144.527 58.0754 144.543 58.3479C144.83 67.9579 139.812 76.9364 133.481 83.8158C131.485 85.8841 128.591 88.4708 125.7 89.1184C125.714 89.3027 125.714 89.3027 125.728 89.4909C126.081 94.1139 126.338 98.7418 126.594 103.371C126.655 104.472 126.717 105.573 126.778 106.673C126.881 108.516 126.983 110.358 127.085 112.201C127.203 114.327 127.321 116.454 127.44 118.58C127.543 120.416 127.645 122.252 127.747 124.088C127.808 125.181 127.868 126.273 127.929 127.365C127.987 128.389 128.043 129.412 128.1 130.436C128.12 130.81 128.141 131.185 128.162 131.559C128.191 132.072 128.219 132.584 128.247 133.096C128.256 133.243 128.264 133.39 128.273 133.542C128.408 136.041 128.37 138.013 126.711 140.023C124.987 141.857 123.161 142.217 120.708 142.348C120.555 142.357 120.402 142.366 120.245 142.375C119.731 142.404 119.217 142.432 118.704 142.461C118.332 142.482 117.96 142.503 117.589 142.524C116.566 142.581 115.544 142.638 114.522 142.695C113.419 142.756 112.317 142.818 111.215 142.88C109.054 143.002 106.892 143.123 104.731 143.243C102.973 143.341 101.214 143.439 99.4554 143.537C95.277 143.771 91.0985 144.004 86.92 144.237C86.7864 144.244 86.6527 144.251 86.515 144.259C85.8376 144.297 85.1602 144.334 84.4827 144.372C84.2109 144.387 83.939 144.402 83.6671 144.417C83.465 144.429 83.4651 144.429 83.2589 144.44C79.0356 144.675 74.8123 144.911 70.5891 145.148C65.8392 145.415 61.0893 145.68 56.3394 145.944C53.8266 146.084 51.3139 146.224 48.8012 146.366C46.6594 146.486 44.5176 146.606 42.3756 146.724C41.2848 146.784 40.194 146.845 39.1033 146.907C31.6069 147.332 31.6069 147.332 28.2786 147.374C27.9645 147.381 27.9644 147.381 27.6439 147.389C25.8128 147.391 24.2053 146.884 22.8513 145.618C21.2917 143.89 21.0654 142.052 20.9313 139.808C20.9071 139.431 20.9071 139.431 20.8823 139.047C20.8258 138.16 20.7734 137.273 20.7211 136.387C20.7111 136.218 20.7011 136.049 20.6908 135.876C20.5413 133.358 20.3984 130.84 20.2585 128.322C20.2012 127.291 20.1429 126.26 20.0844 125.23C20.0388 124.424 19.9938 123.618 19.9491 122.812C19.9278 122.432 19.9064 122.052 19.8847 121.672C19.7689 119.639 19.6755 117.618 19.7098 115.58C19.5113 115.724 19.3129 115.868 19.1085 116.017C15.4078 118.658 11.6383 120.425 6.98253 119.735C4.71787 119.155 2.95802 117.719 1.7077 115.782C0.386161 113.463 -0.0236097 110.948 0.0010382 108.308C0.00271671 108.072 0.00438905 107.836 0.00611842 107.592C0.160425 99.5423 4.1239 91.8521 9.59625 86.0883C9.68561 85.9925 9.77498 85.8967 9.86705 85.798C12.1019 83.4124 14.58 81.7103 17.4848 80.2303C17.3645 76.4004 17.1868 72.5769 16.9683 68.7512C16.9259 68.005 16.8841 67.2586 16.8422 66.5123C16.7699 65.2257 16.6972 63.939 16.6243 62.6524C16.5187 60.7878 16.4139 58.9233 16.3093 57.0587C16.1393 54.0259 15.9689 50.9932 15.7981 47.9605C15.788 47.7799 15.7778 47.5993 15.7673 47.4132C15.6228 44.8467 15.4779 42.2803 15.3329 39.7139C15.3227 39.5328 15.3125 39.3517 15.3019 39.1651C15.2917 38.9843 15.2815 38.8034 15.271 38.6171C15.1001 35.592 14.9301 32.5668 14.7608 29.5416C14.6568 27.6833 14.552 25.825 14.4463 23.9668C14.3739 22.6933 14.3023 21.4198 14.2314 20.1463C14.1906 19.4142 14.1494 18.6822 14.1073 17.9502C13.818 12.9212 13.818 12.9212 13.8031 10.4377C13.8005 10.198 13.8005 10.198 13.798 9.9535C13.8025 8.72405 14.0174 7.75219 14.653 6.70195C14.7239 6.57306 14.7949 6.44417 14.8679 6.31137C15.7273 4.92566 17.1514 4.09398 18.6984 3.67194C19.5094 3.57018 20.3224 3.51823 21.138 3.4661C21.4996 3.44125 21.4996 3.44125 21.8686 3.41591C24.5882 3.23226 27.3095 3.07719 30.031 2.92538C30.5958 2.89357 31.1607 2.86162 31.7256 2.82968C33.4 2.73513 35.0744 2.6415 36.7489 2.54797C37.5433 2.50356 38.3377 2.45905 39.1322 2.41455C41.7814 2.26618 44.4307 2.11801 47.08 1.97055C47.3326 1.95649 47.3326 1.95649 47.5903 1.94214C47.7591 1.93275 47.9279 1.92335 48.1017 1.91367C48.4435 1.89465 48.7853 1.87562 49.1271 1.85659C49.3814 1.84244 49.3814 1.84244 49.6409 1.828C52.3872 1.67508 55.1334 1.52069 57.8796 1.36566C60.7172 1.2055 63.5549 1.04664 66.3926 0.88901C67.9786 0.80088 69.5646 0.712227 71.1506 0.62213C72.5005 0.545448 73.8504 0.469968 75.2004 0.395939C75.8858 0.358323 76.5711 0.320026 77.2564 0.280563C80.0665 0.119082 82.8699 0.00942968 85.6844 0.00278719Z" fill="#222222"/>
<path d="M100.069 41.8238C102.218 43.9233 104.125 46.593 105.068 50.0739C105.583 54.8096 105.703 58.6056 103.828 62.6065C102.042 65.7601 100.123 67.5965 97.2963 68.2928C94.1975 68.5462 92.0681 68.19 89.4807 65.51C87.1693 62.4681 85.8673 59.2683 85.5533 54.8118C85.5765 50.1468 86.6491 46.8081 88.938 43.6082C92.2406 39.6439 96.09 38.8624 100.069 41.8238Z" fill="white"/>
<path d="M59.6829 44.2433C61.8651 46.3078 63.8158 48.9464 64.8143 52.4116C65.4053 57.1385 65.5867 60.932 63.7761 64.9627C62.0421 68.1446 60.153 70.0118 57.3375 70.7535C54.2431 71.0568 52.1083 70.735 49.478 68.0971C47.1179 65.0929 45.7644 61.9145 45.3786 57.4636C45.3265 52.7988 46.3451 49.4433 48.5822 46.2069C51.8204 42.1899 55.6567 41.3464 59.6829 44.2433Z" fill="white"/>
<path d="M244.878 62.954C244.878 67.5798 243.381 71.0718 240.388 73.43C237.395 75.7882 233.087 77.4209 227.463 78.3279C227.735 83.0443 227.871 88.8492 227.871 95.7425C227.871 111.162 224.833 122.726 218.756 130.436C212.679 138.145 203.337 142 190.729 142C184.561 142 179.074 140.776 174.267 138.327C169.46 135.787 165.741 132.431 163.111 128.259C160.48 124.087 159.165 119.642 159.165 114.926C159.165 110.481 160.39 106.989 162.839 104.45C165.378 101.91 168.326 100.64 171.682 100.64C174.856 100.64 177.169 101.275 178.621 102.545C180.162 103.724 181.523 105.447 182.702 107.715C183.7 109.438 184.607 110.708 185.423 111.524C186.33 112.341 187.6 112.749 189.233 112.749C192.226 112.749 194.13 111.252 194.947 108.259C195.854 105.266 196.307 100.187 196.307 93.0214V87.3073V79.0081C188.235 78.6453 181.931 77.2848 177.396 74.9266C172.952 72.5684 170.73 68.5775 170.73 62.954C170.73 58.1469 172.362 54.5642 175.627 52.206C178.983 49.8477 183.201 48.3512 188.28 47.7163C193.45 47.0814 199.981 46.7639 207.872 46.7639C215.763 46.7639 222.248 47.0814 227.327 47.7163C232.406 48.3512 236.579 49.8477 239.844 52.206C243.2 54.5642 244.878 58.1469 244.878 62.954ZM269.308 142.136C262.778 142.227 256.928 140.866 251.758 138.055C246.679 135.243 242.688 131.388 239.785 126.49C236.974 121.502 235.477 115.969 235.296 109.892C235.205 103.815 236.611 98.3728 239.513 93.5656C242.416 88.7585 246.452 84.9491 251.622 82.1373C256.882 79.3256 262.778 77.9197 269.308 77.9197C275.658 77.9197 281.372 79.2802 286.451 82.0013C291.621 84.7223 295.702 88.5317 298.696 93.4296C301.689 98.3275 303.276 103.815 303.457 109.892C303.548 115.787 302.142 121.184 299.24 126.082C296.337 130.889 292.256 134.744 286.995 137.646C281.825 140.549 275.93 142.045 269.308 142.136ZM269.717 122.273C272.166 122.273 274.297 121.32 276.111 119.415C277.925 117.511 278.832 115.289 278.832 112.749C278.832 110.209 277.925 108.032 276.111 106.218C274.297 104.314 272.166 103.361 269.717 103.361C267.268 103.361 265.136 104.314 263.322 106.218C261.508 108.032 260.601 110.209 260.601 112.749C260.601 115.289 261.508 117.511 263.322 119.415C265.136 121.32 267.268 122.273 269.717 122.273ZM346.62 142C330.112 142 319.455 136.966 314.648 126.898C309.931 116.74 307.573 106.445 307.573 96.0146C307.573 88.305 308.253 80.6861 309.614 73.1579C311.065 65.6297 313.378 59.326 316.552 54.2467C319.727 49.1675 323.854 46.6279 328.933 46.6279C332.108 46.6279 334.829 47.6256 337.096 49.621C339.364 51.6164 340.497 54.5189 340.497 58.3283C340.497 60.233 340.316 62.1377 339.953 64.0425C339.59 65.9472 339.046 68.3054 338.321 71.1171C338.139 71.6613 337.776 73.0219 337.232 75.1987C336.779 77.3755 336.461 79.4163 336.28 81.321C340.271 79.1442 344.806 78.0558 349.885 78.0558C354.964 78.0558 359.681 79.1895 364.034 81.4571C368.479 83.7246 372.061 87.2166 374.782 91.933C377.594 96.5588 379 102.228 379 108.939C379 114.654 377.685 120.05 375.055 125.13C372.424 130.118 368.615 134.2 363.626 137.374C358.728 140.458 353.06 142 346.62 142ZM345.803 120.504C348.252 120.504 350.384 119.597 352.198 117.783C354.103 115.878 355.055 113.656 355.055 111.116C355.055 108.577 354.103 106.354 352.198 104.45C350.384 102.545 348.252 101.593 345.803 101.593C343.355 101.593 341.223 102.545 339.409 104.45C337.595 106.354 336.688 108.577 336.688 111.116C336.688 113.656 337.595 115.878 339.409 117.783C341.223 119.597 343.355 120.504 345.803 120.504ZM396.3 76.015C391.855 76.015 388.091 74.4277 385.008 71.2532C381.924 67.988 380.382 64.0425 380.382 59.4167C380.382 54.8817 381.924 51.0269 385.008 47.8523C388.091 44.5871 391.855 42.9545 396.3 42.9545C400.653 42.9545 404.372 44.5871 407.456 47.8523C410.631 51.0269 412.218 54.8817 412.218 59.4167C412.218 64.0425 410.631 67.988 407.456 71.2532C404.372 74.4277 400.653 76.015 396.3 76.015ZM396.3 142C392.581 142 389.815 140.957 388.001 138.871C386.277 136.694 385.098 133.474 384.463 129.211C383.919 124.858 383.647 118.69 383.647 110.708C383.647 103.996 383.965 98.6903 384.599 94.7901C385.325 90.89 386.595 87.9875 388.409 86.0828C390.223 84.1781 392.853 83.2257 396.3 83.2257C400.019 83.2257 402.74 84.3141 404.463 86.491C406.277 88.5771 407.456 91.797 408 96.1506C408.635 100.414 408.953 106.536 408.953 114.518C408.953 121.229 408.59 126.535 407.864 130.436C407.229 134.336 406.005 137.238 404.191 139.143C402.377 141.048 399.746 142 396.3 142Z" fill="#222222"/>
</svg>
