<svg width="874" height="891" viewBox="0 0 874 891" fill="none" xmlns="http://www.w3.org/2000/svg">
<path d="M517.966 0.0168487C519.468 0.0112886 520.969 0.00572855 522.516 0C535.055 0.0401676 547.082 1.22709 559.331 3.88047C560.276 4.08352 561.221 4.28658 562.194 4.49579C621.046 17.6214 673.582 53.2898 706.666 103.701C731.037 142.171 740.639 184.797 743.052 229.704C743.182 232.013 743.312 234.323 743.444 236.633C743.785 242.661 744.118 248.69 744.449 254.719C744.981 264.397 745.523 274.073 746.07 283.75C746.258 287.112 746.441 290.474 746.624 293.837C746.74 295.904 746.855 297.971 746.971 300.039C747.02 300.963 747.069 301.888 747.119 302.84C747.428 308.263 748.012 313.558 748.855 318.926C749.716 318.158 750.576 317.389 751.463 316.598C760.615 308.675 769.906 302.514 780.646 296.946C782.365 296.039 782.365 296.039 784.118 295.114C799.709 287.432 817.196 284.49 834.064 289.161C848.556 294.107 858.164 302.726 865.32 316.178C870.305 326.705 872.939 337.842 873.574 349.453C873.671 351.068 873.671 351.068 873.77 352.716C875.503 410.809 845.172 465.084 806.901 506.671C794.832 519.174 777.339 534.81 759.86 538.725C759.946 539.839 759.946 539.839 760.033 540.976C762.167 568.923 763.72 596.899 765.269 624.883C765.638 631.537 766.009 638.191 766.38 644.846C767.001 655.983 767.619 667.12 768.236 678.257C768.948 691.113 769.664 703.967 770.382 716.822C771.002 727.921 771.62 739.02 772.236 750.119C772.602 756.723 772.97 763.327 773.339 769.93C773.685 776.117 774.028 782.303 774.369 788.489C774.494 790.754 774.62 793.018 774.747 795.282C774.921 798.379 775.091 801.475 775.261 804.571C775.312 805.46 775.362 806.349 775.414 807.265C776.23 822.376 776.005 834.296 765.973 846.443C755.555 857.535 744.511 859.706 729.689 860.502C728.763 860.555 727.837 860.608 726.884 860.663C723.78 860.839 720.675 861.01 717.57 861.181C715.323 861.308 713.076 861.435 710.828 861.562C704.649 861.911 698.47 862.255 692.291 862.598C685.626 862.969 678.962 863.344 672.298 863.719C659.234 864.453 646.169 865.183 633.105 865.91C622.474 866.502 611.843 867.096 601.213 867.69C575.954 869.101 550.695 870.512 525.436 871.917C524.628 871.962 523.82 872.007 522.987 872.053C518.892 872.281 514.797 872.508 510.702 872.736C509.059 872.828 507.415 872.919 505.772 873.01C504.55 873.078 504.55 873.078 503.304 873.148C477.774 874.568 452.244 875.995 426.714 877.427C398.001 879.039 369.288 880.643 340.574 882.24C325.384 883.084 310.195 883.932 295.005 884.787C282.058 885.515 269.111 886.238 256.163 886.952C249.569 887.316 242.975 887.682 236.382 888.057C191.065 890.63 191.065 890.63 170.946 890.882C169.046 890.928 169.046 890.928 167.109 890.975C156.04 890.985 146.322 887.921 138.137 880.267C128.71 869.819 127.341 858.71 126.531 845.146C126.384 842.867 126.384 842.867 126.235 840.543C125.893 835.184 125.576 829.824 125.26 824.463C125.2 823.444 125.139 822.425 125.077 821.375C124.173 806.155 123.309 790.933 122.464 775.71C122.117 769.48 121.765 763.25 121.411 757.02C121.135 752.149 120.864 747.277 120.593 742.406C120.465 740.108 120.335 737.81 120.204 735.513C119.504 723.222 118.939 711.004 119.146 698.689C117.947 699.56 116.748 700.43 115.512 701.327C93.1409 717.293 70.3539 727.974 42.2097 723.803C28.5197 720.298 17.8814 711.62 10.3231 699.911C2.33436 685.892 -0.142722 670.684 0.00627596 654.73C0.0164226 653.301 0.026532 651.873 0.0369861 650.401C0.969779 601.738 24.9292 555.25 58.0098 520.408C58.55 519.829 59.0902 519.25 59.6468 518.653C73.1563 504.232 88.1365 493.943 105.696 484.996C104.969 461.844 103.895 438.731 102.574 415.605C102.318 411.093 102.065 406.582 101.812 402.07C101.375 394.292 100.936 386.514 100.495 378.737C99.8561 367.465 99.2227 356.194 98.5907 344.922C97.5628 326.589 96.5328 308.256 95.5005 289.923C95.439 288.831 95.3775 287.74 95.3142 286.615C94.4405 271.101 93.5648 255.586 92.6884 240.072C92.6265 238.978 92.5647 237.883 92.5009 236.755C92.4392 235.662 92.3774 234.568 92.3138 233.442C91.2808 215.155 90.2531 196.868 89.2297 178.58C88.6008 167.347 87.9676 156.114 87.3285 144.881C86.8909 137.182 86.4583 129.484 86.0294 121.785C85.7828 117.36 85.534 112.935 85.2791 108.51C83.5304 78.1091 83.5304 78.1091 83.4402 63.0962C83.4249 61.6474 83.4249 61.6474 83.4093 60.1694C83.4369 52.7373 84.736 46.8624 88.5781 40.5136C89.0069 39.7345 89.4356 38.9553 89.8773 38.1525C95.0723 29.7759 103.681 24.7483 113.033 22.197C117.935 21.5819 122.85 21.2679 127.78 20.9527C129.966 20.8025 129.966 20.8025 132.197 20.6493C148.637 19.5392 165.087 18.6018 181.539 17.6841C184.953 17.4918 188.368 17.2986 191.783 17.1055C201.904 16.534 212.027 15.968 222.149 15.4026C226.951 15.1342 231.753 14.8651 236.556 14.5961C252.571 13.6991 268.585 12.8035 284.601 11.9121C286.128 11.827 286.128 11.8271 287.686 11.7403C288.706 11.6835 289.726 11.6268 290.777 11.5682C292.843 11.4532 294.91 11.3382 296.976 11.2232C298.513 11.1376 298.513 11.1376 300.081 11.0503C316.683 10.1259 333.284 9.19262 349.885 8.25549C367.038 7.28733 384.192 6.32696 401.346 5.37411C410.934 4.84136 420.522 4.30545 430.109 3.7608C438.269 3.29726 446.429 2.84098 454.59 2.39347C458.733 2.16608 462.876 1.93457 467.018 1.69602C484.006 0.719857 500.952 0.0570029 517.966 0.0168487Z" fill="white"/>
<path d="M604.922 252.826C617.91 265.517 629.444 281.655 635.141 302.698C638.253 331.325 638.979 354.272 627.642 378.458C616.852 397.521 605.251 408.623 588.161 412.832C569.428 414.363 556.556 412.21 540.915 396.01C526.943 377.621 519.072 358.278 517.174 331.339C517.314 303.138 523.798 282.956 537.635 263.612C557.599 239.648 580.869 234.924 604.922 252.826Z" fill="#222222"/>
<path d="M340.84 285.326C354.032 297.806 365.824 313.756 371.86 334.704C375.433 363.278 376.529 386.21 365.584 410.575C355.102 429.81 343.682 441.097 326.662 445.581C307.956 447.415 295.051 445.469 279.151 429.523C264.884 411.362 256.702 392.149 254.37 365.243C254.055 337.044 260.213 316.76 273.736 297.196C293.311 272.913 316.502 267.814 340.84 285.326Z" fill="#222222"/>
</svg>
