<svg width="1287" height="413" viewBox="0 0 1287 413" fill="none" xmlns="http://www.w3.org/2000/svg">
<path d="M272.804 201.405C273.138 221.774 269.111 241.979 260.996 260.665C253.796 277.356 242.004 291.659 226.992 301.91C211.855 312.008 193.995 317.241 175.802 316.91C152.049 316.91 130.084 307.554 109.909 288.844V361.03H154.555V412.883H0V361.03H38.2052V139.045H6.00889V86.3461H109.894V114.412C129.788 93.6873 152.039 83.3247 176.648 83.3247C195.071 82.8801 213.155 88.3255 228.27 98.8686C243.077 109.582 254.57 124.247 261.433 141.187C269.255 160.284 273.124 180.77 272.804 201.405ZM154.958 260.112C161.28 260.428 167.58 259.152 173.28 256.4C178.98 253.649 183.898 249.51 187.582 244.364C195.163 233.865 198.956 218.969 198.959 199.675C198.959 181.249 195.095 166.894 187.368 156.609C183.507 151.514 178.455 147.443 172.654 144.753C166.854 142.063 160.483 140.837 154.099 141.182C147.716 140.994 141.383 142.358 135.644 145.156C129.905 147.955 124.931 152.105 121.149 157.25C112.92 167.963 108.808 182.389 108.811 200.53C108.259 215.728 112.749 230.682 121.582 243.062C125.319 248.424 130.319 252.784 136.139 255.758C141.96 258.731 148.423 260.226 154.958 260.112ZM486.467 176.326V259.684H522.958V311.538H414.778V293.968C396.948 307.085 375.521 314.415 353.392 314.967C328.638 314.967 308.819 308.61 293.935 295.897C286.561 289.576 280.718 281.664 276.848 272.756C272.977 263.849 271.179 254.179 271.59 244.476C271.223 234.006 273.29 223.593 277.629 214.057C281.967 204.521 288.458 196.121 296.592 189.518C313.264 175.733 335.408 168.84 363.025 168.84C371.674 168.724 380.298 169.77 388.669 171.949C397.688 174.625 406.423 178.178 414.749 182.558V164.551C414.981 159.483 414.145 154.422 412.295 149.698C410.446 144.974 407.624 140.69 404.014 137.126C396.86 130.27 386.128 126.843 371.817 126.843C364.05 126.861 356.369 128.467 349.246 131.562C342.122 134.657 335.706 139.175 330.392 144.84L272.44 134.343C290.041 98.9188 326.386 81.2069 381.474 81.2069C419.251 81.2069 446.188 88.9561 462.286 104.455C478.384 119.953 486.445 143.91 486.467 176.326ZM369.486 270.186C382.365 270.186 397.463 262.472 414.778 247.045V226.906C399.325 216.906 385.158 211.906 372.279 211.906C363.777 211.321 355.36 213.918 348.666 219.193C345.876 221.85 343.701 225.086 342.293 228.673C340.886 232.261 340.281 236.112 340.52 239.958C340.52 260.11 350.175 270.186 369.486 270.186ZM689.176 105.203V86.3461H738.326V177.622H687.461C675.44 152.768 657.124 140.342 632.512 140.342C625.471 140.175 618.481 141.57 612.044 144.425C605.606 147.281 599.88 151.526 595.278 156.857C585.342 168.212 580.087 182.915 580.574 197.995C579.905 214.074 584.878 229.882 594.632 242.683C599.063 248.334 604.764 252.86 611.272 255.895C617.78 258.929 624.912 260.385 632.089 260.146C643.498 260.115 654.663 256.846 664.286 250.717C674.725 244.14 683.299 234.99 689.186 224.147L744.99 248.789C734.842 269.456 719.539 287.158 700.558 300.191C683.245 311.33 659.92 316.9 630.583 316.9C592.522 316.9 562.366 306.508 540.115 285.725C517.864 264.942 506.738 236.121 506.738 199.262C506.428 178.458 511.73 157.955 522.088 139.909C532.099 122.592 546.519 108.235 563.88 98.2995C581.241 88.3638 600.924 83.2037 620.926 83.3442C645.363 83.5608 669.16 91.1823 689.176 105.203ZM879.44 86.3461V139.054H837.8V237.403C837.397 242.957 838.829 248.49 841.876 253.151C843.85 255.126 846.249 256.625 848.889 257.535C851.529 258.444 854.342 258.741 857.114 258.402C864.775 258.103 872.33 256.509 879.459 253.69V303.591C862.156 310.751 843.665 314.603 824.942 314.947C805.34 314.947 790.637 309.983 780.835 300.055C771.032 290.126 766.132 276.093 766.136 257.955V139.054H737.587V86.3461H766.136V51.421L837.805 0V86.3461H879.44ZM1017.55 86.3461V139.054H975.898V237.403C975.497 242.957 976.929 248.489 979.973 253.151C981.949 255.126 984.348 256.625 986.989 257.535C989.63 258.444 992.444 258.741 995.216 258.402C1002.88 258.102 1010.43 256.509 1017.56 253.69V303.591C1000.26 310.751 981.767 314.603 963.044 314.947C943.439 314.947 928.735 309.983 918.932 300.055C909.13 290.126 904.23 276.093 904.233 257.955V139.054H875.685V86.3461H904.233V51.421L975.898 0V86.3461H1017.55Z" fill="black"/>
<path d="M1152.42 335.208C1121.31 335.191 1091.16 324.42 1067.08 304.718C1043 285.016 1026.47 257.596 1020.29 227.103C1014.11 196.61 1018.66 164.918 1033.18 137.397C1047.69 109.877 1071.27 88.2186 1099.92 76.0925C1132.86 62.2766 1169.93 62.087 1203.01 75.5654C1236.09 89.0438 1262.47 115.09 1276.37 147.991C1290.27 180.892 1290.55 217.963 1277.15 251.072C1263.76 284.182 1237.78 310.628 1204.91 324.609C1188.31 331.637 1170.45 335.242 1152.42 335.208ZM1114.38 134.649V261.492L1218.97 198.073L1114.38 134.649Z" fill="#FFBA03"/>
</svg>
