<svg width="246" height="250" viewBox="0 0 246 250" fill="none" xmlns="http://www.w3.org/2000/svg">
<path d="M145.337 0.00472759C145.758 0.00316749 146.18 0.00160738 146.614 0C150.132 0.0112707 153.507 0.344311 156.944 1.08883C157.209 1.1458 157.474 1.20278 157.747 1.26148C174.26 4.94441 189.001 14.9527 198.285 29.0977C205.123 39.892 207.817 51.8525 208.494 64.453C208.531 65.101 208.567 65.7491 208.604 66.3971C208.7 68.0887 208.793 69.7804 208.886 71.4722C209.035 74.1875 209.188 76.9027 209.341 79.6178C209.394 80.5612 209.445 81.5047 209.497 82.4481C209.529 83.0282 209.561 83.6083 209.594 84.1884C209.608 84.4477 209.621 84.7071 209.635 84.9743C209.722 86.4961 209.886 87.9818 210.122 89.4879C210.364 89.2723 210.605 89.0568 210.854 88.8347C213.422 86.6116 216.029 84.8828 219.043 83.3205C219.525 83.0661 219.525 83.0661 220.017 82.8065C224.392 80.6511 229.298 79.8256 234.031 81.1362C238.098 82.5238 240.794 84.9425 242.802 88.7169C244.2 91.6706 244.939 94.7955 245.118 98.0537C245.145 98.5068 245.145 98.5068 245.172 98.9691C245.659 115.269 237.148 130.499 226.41 142.168C223.023 145.676 218.115 150.063 213.21 151.162C213.234 151.474 213.234 151.474 213.259 151.793C213.858 159.635 214.293 167.485 214.728 175.337C214.832 177.204 214.936 179.071 215.04 180.938C215.214 184.063 215.387 187.188 215.561 190.313C215.76 193.92 215.961 197.527 216.163 201.134C216.337 204.249 216.51 207.363 216.683 210.477C216.786 212.33 216.889 214.183 216.992 216.036C217.089 217.772 217.186 219.508 217.281 221.243C217.316 221.879 217.352 222.514 217.388 223.15C217.436 224.018 217.484 224.887 217.532 225.756C217.546 226.005 217.56 226.255 217.575 226.512C217.804 230.752 217.741 234.097 214.926 237.505C212.002 240.617 208.904 241.226 204.744 241.45C204.485 241.465 204.225 241.479 203.958 241.495C203.086 241.544 202.215 241.592 201.344 241.64C200.714 241.676 200.083 241.711 199.452 241.747C197.719 241.845 195.985 241.942 194.251 242.038C192.381 242.142 190.511 242.247 188.641 242.352C184.975 242.558 181.31 242.763 177.644 242.967C174.661 243.133 171.678 243.3 168.695 243.466C161.608 243.863 154.52 244.258 147.433 244.652C147.206 244.665 146.979 244.678 146.746 244.691C145.597 244.755 144.448 244.819 143.299 244.882C142.838 244.908 142.376 244.934 141.915 244.959C141.573 244.978 141.573 244.978 141.223 244.998C134.059 245.396 126.896 245.797 119.732 246.199C111.676 246.651 103.619 247.101 95.5623 247.549C91.3001 247.786 87.038 248.024 82.7761 248.264C79.1432 248.468 75.5102 248.671 71.8771 248.871C70.0269 248.973 68.1767 249.076 66.3267 249.181C53.6113 249.903 53.6113 249.903 47.9659 249.974C47.433 249.987 47.433 249.987 46.8893 250C43.7834 250.003 41.0568 249.143 38.7601 246.995C36.1148 244.064 35.7309 240.947 35.5034 237.141C35.4623 236.502 35.4623 236.502 35.4204 235.849C35.3246 234.346 35.2356 232.842 35.147 231.337C35.13 231.052 35.113 230.766 35.0955 230.471C34.8419 226.2 34.5995 221.929 34.3623 217.658C34.2651 215.91 34.1663 214.161 34.067 212.414C33.9896 211.047 33.9133 209.68 33.8374 208.313C33.8014 207.668 33.765 207.023 33.7282 206.379C33.5318 202.93 33.3734 199.502 33.4315 196.046C33.0949 196.291 32.7584 196.535 32.4116 196.787C26.1346 201.266 19.7407 204.263 11.8437 203.093C8.0024 202.11 5.01736 199.675 2.89658 196.389C0.655003 192.455 -0.0400466 188.188 0.00176098 183.712C0.00460805 183.311 0.00744466 182.91 0.010378 182.497C0.272112 168.843 6.99491 155.799 16.2771 146.022C16.4286 145.86 16.5802 145.697 16.7364 145.53C20.527 141.483 24.7304 138.596 29.6575 136.086C29.4534 129.589 29.1521 123.104 28.7815 116.615C28.7095 115.349 28.6386 114.083 28.5675 112.818C28.4449 110.635 28.3217 108.453 28.198 106.27C28.0188 103.108 27.8411 99.945 27.6637 96.7823C27.3753 91.6382 27.0863 86.4941 26.7966 81.35C26.7794 81.0437 26.7621 80.7374 26.7444 80.4218C26.4992 76.0686 26.2535 71.7154 26.0076 67.3623C25.9902 67.0551 25.9729 66.748 25.955 66.4315C25.9377 66.1247 25.9203 65.8179 25.9025 65.5019C25.6126 60.3707 25.3243 55.2395 25.0371 50.1082C24.8606 46.9561 24.683 43.8042 24.5036 40.6523C24.3809 38.4922 24.2595 36.3321 24.1391 34.1719C24.0699 32.9302 24.0001 31.6885 23.9286 30.447C23.4379 21.9167 23.4379 21.9167 23.4126 17.7043C23.4083 17.2977 23.4083 17.2977 23.4039 16.883C23.4117 14.7976 23.7762 13.1492 24.8543 11.3678C24.9746 11.1492 25.0949 10.9305 25.2188 10.7053C26.6765 8.35486 29.092 6.94417 31.7161 6.22831C33.0917 6.05571 34.4707 5.96759 35.854 5.87916C36.4675 5.83702 36.4675 5.83702 37.0934 5.79403C41.7062 5.48253 46.322 5.2195 50.9382 4.96201C51.8963 4.90804 52.8545 4.85385 53.8126 4.79967C56.6527 4.6393 59.4929 4.48048 62.3331 4.32183C63.6806 4.24652 65.0281 4.17102 66.3756 4.09554C70.8692 3.84387 75.3628 3.59255 79.8565 3.34242C80.2851 3.31857 80.2851 3.31857 80.7222 3.29424C81.0085 3.2783 81.2947 3.26237 81.5897 3.24595C82.1694 3.21368 82.7492 3.18141 83.3289 3.14913C83.7603 3.12512 83.7603 3.12512 84.2004 3.10063C88.8586 2.84125 93.5168 2.57937 98.1748 2.31642C102.988 2.04476 107.801 1.77529 112.614 1.50793C115.305 1.35844 117.995 1.20807 120.685 1.05525C122.975 0.925183 125.264 0.797155 127.554 0.671588C128.717 0.607784 129.879 0.542825 131.041 0.475888C135.808 0.201986 140.563 0.0159945 145.337 0.00472759Z" fill="#222222"/>
<path d="M169.735 70.9416C173.38 74.5026 176.616 79.031 178.215 84.9352C179.088 92.9679 179.292 99.4066 176.111 106.193C173.083 111.542 169.828 114.657 165.032 115.838C159.776 116.268 156.164 115.664 151.776 111.118C147.855 105.958 145.647 100.531 145.114 92.9716C145.153 85.0588 146.973 79.3958 150.855 73.9681C156.457 67.2441 162.986 65.9184 169.735 70.9416Z" fill="white"/>
<path d="M101.232 75.0456C104.934 78.5474 108.243 83.023 109.936 88.9007C110.939 96.9183 111.247 103.353 108.175 110.19C105.234 115.587 102.03 118.754 97.2543 120.012C92.0056 120.526 88.3846 119.981 83.9231 115.506C79.9199 110.41 77.6241 105.019 76.9697 97.4698C76.8814 89.5574 78.6092 83.8658 82.4036 78.3762C87.8963 71.5627 94.4033 70.1319 101.232 75.0456Z" fill="white"/>
</svg>
