<svg width="218" height="130" viewBox="0 0 218 130" fill="none" xmlns="http://www.w3.org/2000/svg">
<path d="M104.591 12.9995C109.284 17.1945 112.488 22.8684 114.066 28.9818C114.066 29.3654 114.066 29.749 114.066 30.1442C115.837 30.6619 116.805 30.1773 118.425 29.3711C123.804 26.7846 130.007 27.0495 135.601 28.6912C136.709 29.0928 137.726 29.5767 138.759 30.1442C139.023 30.279 139.288 30.4139 139.56 30.5528C144.107 32.9359 147.491 36.3779 149.957 40.8959C150.092 41.1173 150.227 41.3387 150.367 41.5668C152.911 46.039 153.648 52.2503 152.458 57.2416C152.109 58.5508 151.68 59.8177 151.177 61.0736C150.865 61.9753 150.777 62.4217 150.796 63.3359C150.804 63.6981 150.811 64.0603 150.819 64.4335C151.117 64.5811 151.415 64.7287 151.723 64.8808C159.611 68.808 165.706 74.1241 168.621 82.7406C170.907 90.5935 170.418 98.4202 166.647 105.697C165.668 107.505 164.506 109.09 163.165 110.637C162.996 110.85 162.826 111.063 162.651 111.283C158.681 116.13 153.247 118.821 147.373 120.517C147.114 120.596 146.855 120.674 146.588 120.755C144.358 121.386 142.27 121.526 139.961 121.498C139.607 121.495 139.252 121.492 138.887 121.489C136.348 121.445 134.024 121.262 131.581 120.517C131.297 120.433 131.297 120.433 131.007 120.347C126.582 119.004 122.744 116.876 119.234 113.833C119.02 113.68 118.805 113.526 118.584 113.368C118.419 113.234 118.255 113.1 118.086 112.962C118.086 112.77 118.086 112.578 118.086 112.381C116.942 112.028 116.942 112.028 115.789 112.09C114.869 112.836 114.203 113.76 113.492 114.705C106.593 122.961 97.1769 127.944 86.5016 128.944C75.0681 129.534 65.2492 125.432 56.8197 117.738C55.6 116.612 54.571 115.423 53.6534 114.031C53.213 113.503 53.213 113.503 52.5453 113.238C51.3553 113.26 50.6694 113.958 49.785 114.687C46.6291 117.154 43.2185 118.979 39.4125 120.226C39.0675 120.341 38.7226 120.455 38.3671 120.573C30.4204 122.944 21.9018 121.254 14.7662 117.329C13.2892 116.486 11.9752 115.541 10.6996 114.415C10.4642 114.211 10.2288 114.008 9.98622 113.798C4.53625 108.976 0.531088 102.182 0.0211774 94.7282C-0.000903796 93.8976 -0.00397233 93.07 0.00400293 92.2392C0.0059461 91.9456 0.00788927 91.652 0.00989132 91.3494C0.116107 83.5679 3.32946 76.3073 8.82895 70.8584C11.8658 67.9542 15.5163 66.1134 19.3134 64.4335C19.483 62.9574 19.1848 61.9609 18.6315 60.5832C16.4073 54.9653 16.9027 48.5229 19.0263 42.93C21.9326 36.2722 26.9655 31.7456 33.5622 29.0181C39.7064 26.8104 45.2435 27.3075 51.39 29.1089C52.196 29.3097 52.9429 29.3402 53.7689 29.2724C53.8163 28.9008 53.8637 28.5292 53.9125 28.1464C54.9689 22.868 58.1639 17.9673 61.8085 14.1618C61.9595 13.9876 62.1106 13.8135 62.2661 13.634C73.2255 1.43909 93.0256 3.02665 104.591 12.9995Z" fill="#D7E2F3"/>
<path d="M67.1797 10.3477C77.8288 -1.36096 97.4489 -0.0319395 109.062 9.8623C113.606 13.8861 116.761 19.3361 118.356 25.2656V27.7188L119.802 28.1367C121.027 28.4905 122.098 28.5273 123.17 28.2773C124.13 28.0534 125.022 27.6051 125.813 27.2158C130.881 24.8085 136.859 24.9902 142.461 26.6035C143.491 26.976 144.453 27.4271 145.458 27.9727L145.484 27.9873L145.512 28.001C145.784 28.1383 146.057 28.2747 146.337 28.416V28.417C150.765 30.7103 154.055 34.0083 156.477 38.3916L156.5 38.4346L156.525 38.4756C156.657 38.6892 156.789 38.9029 156.925 39.1221H156.926C159.332 43.3013 160.062 49.2315 158.928 53.9688C158.584 55.2397 158.161 56.4763 157.661 57.7109L157.644 57.7549L157.628 57.7998C157.233 58.9256 157.088 59.6302 157.113 60.8613C157.121 61.2389 157.129 61.6169 157.137 62.0059L157.162 63.2256L158.258 63.7617C158.571 63.9148 158.885 64.067 159.207 64.2246V64.2256C167.23 68.1719 173.165 73.3695 176.017 81.6699C178.277 89.3826 177.774 96.9749 174.076 104.036C173.132 105.758 172.001 107.288 170.66 108.817L170.632 108.85L170.605 108.882C170.43 109.1 170.253 109.318 170.072 109.543C166.24 114.161 160.938 116.806 154.952 118.514L154.938 118.518L154.926 118.521C154.659 118.602 154.407 118.677 154.134 118.759C152.034 119.345 150.041 119.488 147.704 119.46H147.697C147.329 119.457 146.96 119.453 146.58 119.45H146.581C143.973 119.406 141.734 119.221 139.415 118.522L139.407 118.52L139.4 118.518L138.795 118.34H138.794C134.4 117.021 130.6 114.939 127.111 111.95L127.041 111.89L126.965 111.836L126.599 111.576V110.473L125.182 110.041C124.644 109.877 124.152 109.719 123.639 109.655C123.119 109.59 122.61 109.624 122.068 109.653L121.426 109.688L120.924 110.091C119.746 111.035 118.897 112.195 118.202 113.109C111.271 121.292 101.842 126.225 91.1289 127.227C80.0378 127.782 70.4545 124.008 62.0986 116.767L61.293 116.055C60.1203 114.984 59.1458 113.868 58.2764 112.564L58.2139 112.471L58.1406 112.385C57.9718 112.185 57.6747 111.81 57.2725 111.525C56.8812 111.249 56.4316 111.086 56.1738 110.985L55.8037 110.841L55.4062 110.848C53.319 110.886 52.002 112.205 51.2812 112.796C48.1402 115.217 44.7549 117.006 40.9697 118.231L40.9639 118.233C40.6138 118.348 40.2632 118.461 39.9033 118.579C32.1555 120.859 23.7311 119.261 16.5557 115.367C15.1219 114.558 13.8486 113.653 12.6045 112.567L12.5967 112.561L12.5879 112.554L11.8359 111.911C6.41216 107.163 2.52475 100.562 2.02051 93.4482C1.99918 92.6287 1.99582 91.807 2.00391 90.9746V90.9678C2.00596 90.6618 2.00863 90.3553 2.01074 90.04L2.00977 90.0391C2.11825 82.4914 5.26964 75.4302 10.7002 70.1064C13.6364 67.3359 17.2129 65.5319 21.1797 63.7979L22.2324 63.3369L22.3652 62.1963C22.6015 60.1647 22.144 58.7529 21.5117 57.1973C19.408 51.9383 19.8329 45.7834 21.9229 40.3135C24.7527 33.9358 29.6231 29.5771 36.1299 26.9092C42.0679 24.8134 47.4423 25.2537 53.668 27.0566L53.707 27.0684L53.7461 27.0781C54.8524 27.3504 55.8636 27.3834 56.8955 27.2998L58.5107 27.1689L58.7178 25.5625C58.7645 25.2006 58.8114 24.8383 58.8594 24.4668C59.8854 19.4891 62.9812 14.733 66.6533 10.9443L66.6875 10.9082L66.7207 10.8711C66.8724 10.6982 67.0229 10.5243 67.1787 10.3467L67.1797 10.3477Z" stroke="white" stroke-width="4"/>
<path d="M111.669 52.8808C113.555 54.7237 115.23 57.0672 116.057 60.1227C116.509 64.2797 116.614 67.6118 114.968 71.1238C113.401 73.892 111.717 75.504 109.235 76.1152C106.515 76.3376 104.646 76.025 102.374 73.6725C100.346 71.0023 99.2026 68.1935 98.927 64.2816C98.9473 60.1867 99.8889 57.256 101.898 54.4471C104.797 50.9674 108.176 50.2813 111.669 52.8808Z" fill="white"/>
<path d="M111.669 52.8808C113.555 54.7237 115.23 57.0672 116.057 60.1227C116.509 64.2797 116.614 67.6118 114.968 71.1238C113.401 73.892 111.717 75.504 109.235 76.1152C106.515 76.3376 104.646 76.025 102.374 73.6725C100.346 71.0023 99.2026 68.1935 98.927 64.2816C98.9473 60.1867 99.8889 57.256 101.898 54.4471C104.797 50.9674 108.176 50.2813 111.669 52.8808Z" fill="white"/>
<path d="M76.217 54.9979C78.1326 56.8102 79.8449 59.1263 80.7214 62.1681C81.2402 66.3173 81.3994 69.6472 79.81 73.1853C78.288 75.9784 76.6297 77.6174 74.1582 78.2685C71.442 78.5348 69.5681 78.2523 67.2592 75.9367C65.1875 73.2996 63.9994 70.5096 63.6608 66.6027C63.6151 62.508 64.5092 59.5625 66.4729 56.7216C69.3154 53.1955 72.6829 52.4551 76.217 54.9979Z" fill="white"/>
<path d="M76.217 54.9979C78.1326 56.8102 79.8449 59.1263 80.7214 62.1681C81.2402 66.3173 81.3994 69.6472 79.81 73.1853C78.288 75.9784 76.6297 77.6174 74.1582 78.2685C71.442 78.5348 69.5681 78.2523 67.2592 75.9367C65.1875 73.2996 63.9994 70.5096 63.6608 66.6027C63.6151 62.508 64.5092 59.5625 66.4729 56.7216C69.3154 53.1955 72.6829 52.4551 76.217 54.9979Z" fill="white"/>
<path d="M108.669 49.8808C110.555 51.7237 112.23 54.0672 113.057 57.1227C113.509 61.2797 113.614 64.6118 111.968 68.1238C110.401 70.892 108.717 72.504 106.235 73.1152C103.515 73.3376 101.646 73.025 99.3744 70.6725C97.3455 68.0023 96.2026 65.1935 95.927 61.2816C95.9473 57.1867 96.8889 54.256 98.8981 51.4471C101.797 47.9674 105.176 47.2813 108.669 49.8808Z" fill="url(#paint0_linear_3439_1506)"/>
<path d="M108.669 49.8808C110.555 51.7237 112.23 54.0672 113.057 57.1227C113.509 61.2797 113.614 64.6118 111.968 68.1238C110.401 70.892 108.717 72.504 106.235 73.1152C103.515 73.3376 101.646 73.025 99.3744 70.6725C97.3455 68.0023 96.2026 65.1935 95.927 61.2816C95.9473 57.1867 96.8889 54.256 98.8981 51.4471C101.797 47.9674 105.176 47.2813 108.669 49.8808Z" fill="black"/>
<path d="M73.217 51.9979C75.1326 53.8102 76.8449 56.1263 77.7214 59.1681C78.2402 63.3173 78.3994 66.6472 76.81 70.1853C75.288 72.9784 73.6297 74.6174 71.1582 75.2685C68.442 75.5348 66.5681 75.2523 64.2592 72.9367C62.1875 70.2996 60.9994 67.5096 60.6608 63.6027C60.6151 59.508 61.5092 56.5625 63.4729 53.7216C66.3154 50.1955 69.6829 49.4551 73.217 51.9979Z" fill="url(#paint1_linear_3439_1506)"/>
<path d="M73.217 51.9979C75.1326 53.8102 76.8449 56.1263 77.7214 59.1681C78.2402 63.3173 78.3994 66.6472 76.81 70.1853C75.288 72.9784 73.6297 74.6174 71.1582 75.2685C68.442 75.5348 66.5681 75.2523 64.2592 72.9367C62.1875 70.2996 60.9994 67.5096 60.6608 63.6027C60.6151 59.508 61.5092 56.5625 63.4729 53.7216C66.3154 50.1955 69.6829 49.4551 73.217 51.9979Z" fill="black"/>
<path d="M196.754 29.5096C197.676 30.1259 198.026 30.4948 198.393 31.5436C198.531 33.4721 197.805 34.6564 196.611 36.0586C196.481 36.2156 196.352 36.3727 196.218 36.5345C195.956 36.8511 195.693 37.1667 195.429 37.4812C194.893 38.1183 194.368 38.7633 193.841 39.4075C193.56 39.7482 193.278 40.0888 192.996 40.429C192.762 40.343 192.528 40.2571 192.287 40.1685C191.984 40.0591 191.681 39.9497 191.369 39.837C191.067 39.7272 190.765 39.6173 190.454 39.5041C190.205 39.4264 189.957 39.3488 189.701 39.2688C189.272 39.466 189.272 39.466 189.144 40.2464C189.082 40.4987 189.021 40.751 188.957 41.0109C189.915 41.7989 190.888 42.4845 191.939 43.1447C193.35 44.0661 194.453 45.1215 195.56 46.3858C195.713 46.5574 195.866 46.7289 196.024 46.9057C196.375 47.3115 196.702 47.7366 197.025 48.1651C196.979 48.3359 196.933 48.5067 196.886 48.6826C197.023 48.7843 197.159 48.8859 197.3 48.9907C197.892 49.5878 198.062 50.1171 198.335 50.9084C198.761 52.073 198.761 52.073 199.82 52.6758C200.052 52.6864 200.284 52.697 200.522 52.708C200.922 52.2311 200.922 52.2311 201.128 51.4834C200.998 50.8662 200.998 50.8662 200.774 50.2273C200.703 50.0098 200.633 49.7924 200.56 49.5684C200.475 49.3199 200.475 49.3199 200.389 49.0665C201.011 48.5339 201.633 48.0015 202.256 47.4692C202.516 47.246 202.516 47.246 202.782 47.0182C203.302 46.5738 203.823 46.1313 204.345 45.6888C204.508 45.5478 204.672 45.4068 204.84 45.2616C205.575 44.638 206.116 44.2267 207.039 43.9145C207.925 44.0307 208.593 44.1338 209.231 44.7934C209.819 45.6094 210.237 46.2246 210.106 47.2413C209.413 50.3326 207.205 51.8128 204.732 53.5586C202.729 55.0006 201.112 56.4911 199.512 58.3548C197.45 60.7426 195.152 62.4104 191.935 62.6973C190.041 62.6757 188.456 62.0947 186.931 60.9925C186.247 60.7394 186.247 60.7394 185.637 60.6458C185.208 60.843 185.208 60.843 185.081 61.6234C185.019 61.8757 184.957 62.128 184.893 62.3879C185.295 62.676 185.698 62.9628 186.101 63.249C186.325 63.4088 186.55 63.5686 186.781 63.7333C187.4 64.1446 188.013 64.4791 188.687 64.7912C188.4 65.5317 188.233 65.9316 187.527 66.3232C185.844 66.7912 183.876 65.8176 182.37 65.0749C179.415 63.3336 176.282 60.6208 174.51 57.6642C174.391 57.4733 174.272 57.2824 174.15 57.0857C173.569 56.0408 173.414 55.6082 173.618 54.3918C173.721 54.1388 173.823 53.8859 173.928 53.6253C174.509 53.5064 174.509 53.5064 175.102 53.3851C175.243 53.5567 175.384 53.7283 175.53 53.9051C175.717 54.1304 175.904 54.3557 176.097 54.5878C176.281 54.8111 176.466 55.0343 176.657 55.2644C177.612 56.3566 178.216 56.7849 179.653 57.1009C179.813 56.5031 179.973 55.9053 180.138 55.2894C180.005 55.1632 179.871 55.037 179.734 54.9069C179.557 54.7384 179.381 54.5699 179.199 54.3963C179.025 54.2305 178.85 54.0647 178.671 53.8939C178.175 53.3904 177.729 52.9007 177.329 52.3178C177.375 52.147 177.421 51.9762 177.468 51.8002C177.297 51.7545 177.126 51.7087 176.95 51.6616C176.219 50.0717 176.124 48.4613 176.119 46.7411C176.069 44.3609 175.665 42.1828 175.074 39.8825C174.72 38.4668 174.753 37.3222 175.33 35.9727C176.109 35.2281 176.796 34.7538 177.885 34.716C179.356 34.9318 180.334 35.3185 181.312 36.462C182.26 38.1605 182.546 40.3695 182.487 42.2848C182.452 43.1831 182.452 43.1831 183.024 43.627C183.231 43.7248 183.439 43.8225 183.652 43.9232C185.254 44.7918 186.113 45.6787 186.762 47.3913C187.059 48.7645 186.998 50.1728 186.96 51.57C187.472 51.7073 187.984 51.8446 188.512 51.986C189.33 51.0634 189.416 50.0823 189.347 48.8945C189.042 46.36 188.471 44.5624 186.521 42.8545C186.211 42.7086 185.902 42.5626 185.582 42.4122C184.849 41.8516 184.849 41.8516 184.661 41.3157C184.447 39.3769 185.167 38.2404 186.335 36.7803C186.734 36.2981 187.14 35.822 187.545 35.3455C187.809 35.0228 188.073 34.6995 188.335 34.3758C193.56 28.0078 193.56 28.0078 196.754 29.5096Z" fill="#D7E2F3"/>
<path d="M199.122 27.7859C200.162 28.7179 200.681 29.8603 201.014 31.2051C200.968 31.3759 200.923 31.5467 200.875 31.7226C201.311 31.6381 201.311 31.6381 201.754 31.5519C203.595 31.2904 205.343 31.8537 207.035 32.5411C207.814 33.1478 208.245 33.7745 208.69 34.6485C208.797 34.8501 208.905 35.0517 209.017 35.2594C209.81 36.8283 209.893 37.5465 209.424 39.283C209.337 39.6087 209.251 39.9345 209.162 40.2701C208.906 41.0857 208.906 41.0857 208.509 41.534C208.799 41.6233 209.09 41.7126 209.39 41.8047C211.094 42.5032 212.089 43.8442 212.882 45.462C213.235 47.3153 212.468 49.4703 211.617 51.0981C209.992 53.2931 207.401 55.0276 205.149 56.5298C203.689 57.5493 202.676 58.7684 201.568 60.1402C199.35 62.846 196.247 64.9278 192.707 65.313C191.879 65.299 191.879 65.299 191.344 65.225C191.253 65.5211 191.162 65.8171 191.069 66.1221C190.541 67.4165 189.643 68.2207 188.423 68.8801C186.094 69.5809 183.626 68.7547 181.535 67.6326C177.342 65.178 172.537 61.14 170.883 56.4761C170.593 55.0893 170.896 53.6808 171.479 52.4136C172.02 51.7342 172.591 51.1561 173.327 50.69C173.498 50.7358 173.669 50.7816 173.845 50.8287C173.804 50.4755 173.804 50.4755 173.762 50.1153C173.726 49.7961 173.691 49.4769 173.654 49.148C173.618 48.8361 173.583 48.5241 173.546 48.2027C173.463 47.3932 173.448 46.598 173.446 45.7846C173.408 44.205 173.017 42.7783 172.613 41.2591C172.03 38.8722 171.659 37.015 172.88 34.7609C173.929 33.0849 175.778 32.5275 177.597 32.0378C179.759 32.0984 181.467 32.8413 182.959 34.4106C183.057 34.5809 183.155 34.7512 183.255 34.9266C183.523 35.4673 183.523 35.4673 184.234 35.8617C184.405 35.5872 184.576 35.3126 184.752 35.0297C187.129 31.4487 189.97 27.5784 194.253 26.2981C195.927 26.1034 197.781 26.8116 199.122 27.7859ZM192.128 30.2108C191.147 31.1594 190.278 32.1712 189.418 33.2281C188.894 33.8627 188.353 34.4818 187.813 35.1023C187.426 35.5594 187.039 36.017 186.653 36.4751C186.371 36.7949 186.371 36.7949 186.084 37.1212C184.945 38.5062 184.563 39.4554 184.669 41.2553C184.953 42.1981 185.575 42.48 186.406 42.9312C187.867 43.761 188.473 44.9692 188.949 46.5378C189.405 48.3647 189.51 49.722 188.91 51.537C188.778 51.6849 188.647 51.8329 188.512 51.9852C188 51.848 187.487 51.7107 186.96 51.5692C186.957 51.3276 186.955 51.0859 186.952 50.837C186.898 48.3033 186.771 46.5267 184.972 44.6521C184.464 44.2331 184.044 44.0674 183.43 43.8456C182.94 43.6048 182.94 43.6048 182.552 43.1769C182.358 42.1813 182.314 41.221 182.276 40.208C182.199 38.5703 181.916 37.1614 180.806 35.9137C179.756 35.1192 179.188 34.8928 177.885 34.7152C176.774 34.9764 176.187 35.2183 175.329 35.9719C174.72 37.5968 174.782 38.6957 175.195 40.3562C175.289 40.7737 175.382 41.1914 175.476 41.6091C175.521 41.8061 175.567 42.0031 175.614 42.2061C176.073 44.2069 176.21 46.1598 176.232 48.2073C176.261 49.4754 176.45 50.4886 176.95 51.6608C177.121 51.7065 177.292 51.7523 177.468 51.7995C177.484 52.0785 177.501 52.3576 177.518 52.6451C177.868 53.1222 177.868 53.1222 178.327 53.5726C178.551 53.8047 178.551 53.8047 178.779 54.0414C179.22 54.4726 179.673 54.8841 180.138 55.2886C179.978 55.8864 179.818 56.4842 179.653 57.1001C178.24 56.8641 177.56 56.2458 176.663 55.1896C175.672 54.0235 175.672 54.0235 174.256 53.4351C173.834 53.6362 173.834 53.6362 173.586 54.3823C173.352 56.0996 174.153 57.1749 175.086 58.5697C176.263 60.1019 177.711 61.3445 179.166 62.6035C179.366 62.777 179.565 62.9505 179.771 63.1293C181.835 64.8746 184.105 66.1914 186.838 66.5139C187.841 66.2099 187.841 66.2099 188.479 65.5668C188.547 65.3106 188.616 65.0544 188.687 64.7904C188.45 64.6502 188.214 64.51 187.971 64.3656C187.661 64.1812 187.351 63.9968 187.042 63.8123C186.886 63.72 186.73 63.6277 186.57 63.5325C185.392 62.8296 185.392 62.8296 184.893 62.3871C185.021 61.8667 185.16 61.3491 185.309 60.8344C185.417 60.7719 185.526 60.7094 185.637 60.645C186.622 61.0136 187.469 61.3467 188.345 61.9253C190.782 62.8507 192.963 62.9002 195.357 61.828C197.504 60.6578 199.098 59.0402 200.67 57.2018C201.86 55.8135 203.076 54.751 204.601 53.7252C205.491 53.1081 206.317 52.4414 207.143 51.7422C207.405 51.5214 207.667 51.3005 207.937 51.073C209.294 49.8117 209.987 48.5515 210.177 46.6959C209.957 45.7715 209.572 45.0386 208.85 44.3991C208.012 44.0356 208.012 44.0356 207.039 43.9137C205.534 44.623 204.297 45.7021 203.019 46.7542C202.81 46.9232 202.602 47.0922 202.387 47.2663C201.239 48.1886 201.239 48.1886 200.319 49.3245C200.464 49.8409 200.464 49.8409 200.732 50.3712C201.158 51.3931 201.158 51.3931 200.876 52.2298C200.759 52.3873 200.643 52.5449 200.522 52.7072C199.799 52.6087 199.799 52.6087 198.97 52.2911C198.494 51.4962 198.494 51.4962 198.122 50.5385C197.894 49.9613 197.657 49.3873 197.404 48.8205C197.233 48.7748 197.062 48.729 196.886 48.6819C196.932 48.5111 196.978 48.3403 197.025 48.1643C196.644 47.6334 196.26 47.1442 195.836 46.6496C195.65 46.4321 195.65 46.4321 195.46 46.2103C193.779 44.2978 191.777 42.8981 189.588 41.617C189.146 41.3382 189.146 41.3382 188.957 41.0101C189.085 40.4898 189.223 39.9719 189.373 39.4574C190.324 39.4377 191.047 39.6417 191.917 39.993C192.12 40.074 192.322 40.155 192.53 40.2385C192.684 40.3011 192.837 40.3637 192.996 40.4282C193.738 39.5354 194.48 38.642 195.222 37.7484C195.433 37.4945 195.644 37.2406 195.862 36.979C196.064 36.7354 196.266 36.4919 196.474 36.241C196.661 36.0165 196.847 35.792 197.039 35.5606C198.053 34.3015 198.51 33.1808 198.393 31.5428C198.026 30.494 197.676 30.1251 196.754 29.5088C194.893 28.6741 193.744 29.0016 192.128 30.2108Z" fill="white"/>
<path d="M182.547 33.9612C183.106 34.5715 183.399 35.1975 183.647 35.9819C182.842 35.9952 182.313 35.9017 181.508 35.6859C181.533 36.1045 181.533 36.1045 181.559 36.5316C180.782 36.3236 180.782 36.3236 180.415 35.9478C179.633 35.3282 178.795 35.0741 177.816 34.9739C176.559 35.2589 176.559 35.2589 175.588 36.0412C175.003 37.677 175.039 38.759 175.453 40.4255C175.547 40.8431 175.641 41.2607 175.734 41.6784C175.78 41.8754 175.825 42.0725 175.872 42.2754C176.335 44.2925 176.468 46.2644 176.501 48.3282C176.527 49.3828 176.655 50.1841 177.089 51.1432C177.043 51.314 176.997 51.4848 176.95 51.6608C177.121 51.7065 177.292 51.7523 177.468 51.7995C177.598 52.0402 177.728 52.281 177.861 52.5291C178.43 53.4654 178.998 54.0186 179.83 54.7077C180.208 55.0299 180.208 55.0299 180.397 55.358C180.161 55.9435 179.913 56.5245 179.653 57.1001C178.551 57.1211 178.132 57.0331 177.294 56.2872C177.055 56.0165 176.82 55.7422 176.59 55.4645C175.604 54.2873 175.604 54.2873 174.186 53.6938C173.801 54.589 173.604 55.1508 173.866 56.1041C175.083 58.7918 177.287 60.6548 179.476 62.5478C179.742 62.7793 179.742 62.7793 180.012 63.0154C181.646 64.3959 183.341 65.3742 185.41 65.9579C185.663 66.0336 185.916 66.1093 186.177 66.1873C187.107 66.2738 187.48 66.0494 188.22 65.4974C188.451 65.1475 188.451 65.1475 188.687 64.7904C188.399 64.6904 188.111 64.5904 187.814 64.4874C186.57 63.9887 185.631 63.1985 184.634 62.3178C184.801 61.5651 184.801 61.5651 185.05 60.7651C185.267 60.6401 185.483 60.5151 185.706 60.3862C186.708 60.7418 187.529 61.0822 188.414 61.6665C190.846 62.5902 193.025 62.6354 195.422 61.5854C197.53 60.4425 199.076 58.6956 200.614 56.8922C201.743 55.5934 202.909 54.6351 204.328 53.6716C205.22 53.0464 206.053 52.3759 206.884 51.6729C207.146 51.452 207.408 51.2312 207.678 51.0036C208.607 50.1398 209.234 49.3275 209.685 48.1417C209.86 47.6822 209.86 47.6822 210.038 47.2135C210.123 47.2364 210.209 47.2592 210.297 47.2828C210.245 47.8181 210.193 48.3533 210.139 48.9048C210.675 48.9518 210.675 48.9518 211.244 48.9234C211.375 48.7755 211.506 48.6276 211.641 48.4752C211.681 48.6689 211.72 48.8625 211.761 49.0621C212.075 48.231 212.39 47.3999 212.713 46.5436C212.799 46.5665 212.884 46.5894 212.972 46.613C211.904 51.5178 209.223 53.8119 205.149 56.5298C203.688 57.5493 202.676 58.7684 201.567 60.1402C199.35 62.846 196.247 64.9278 192.707 65.313C191.879 65.299 191.879 65.299 191.344 65.225C191.253 65.5211 191.162 65.8171 191.069 66.1221C190.541 67.4165 189.643 68.2207 188.423 68.8801C186.094 69.5809 183.626 68.7547 181.535 67.6326C177.342 65.178 172.537 61.1401 170.883 56.4761C170.592 55.0893 170.895 53.6808 171.479 52.4136C172.02 51.7342 172.591 51.1561 173.327 50.69C173.498 50.7358 173.669 50.7816 173.845 50.8287C173.804 50.4756 173.804 50.4756 173.762 50.1153C173.726 49.7961 173.69 49.4769 173.654 49.1481C173.618 48.8361 173.583 48.5241 173.546 48.2027C173.463 47.3933 173.448 46.598 173.445 45.7846C173.408 44.2051 173.017 42.7783 172.613 41.2591C172.03 38.8722 171.659 37.015 172.88 34.761C173.929 33.0849 175.778 32.5275 177.597 32.0378C179.538 32.0923 181.089 32.6808 182.547 33.9612Z" fill="white"/>
<path d="M205.566 34.9211C206.416 35.623 206.822 36.2412 207.151 37.2872C207.025 39.6635 205.695 41.2826 204.003 42.8231C202.735 43.9319 201.434 45.0011 200.12 46.0545C199.7 46.3892 199.7 46.3892 199.322 46.8384C198.428 46.0965 197.671 45.2316 196.898 44.3688C195.976 43.3205 195.976 43.3205 194.978 42.3463C195.549 40.7958 196.568 39.6297 197.604 38.3695C197.864 38.0417 197.864 38.0417 198.129 37.7074C200.238 35.1303 202.325 33.2476 205.566 34.9211Z" fill="#D7E2F3"/>
<defs>
<linearGradient id="paint0_linear_3439_1506" x1="104.173" y1="48.3138" x2="105.07" y2="73.1779" gradientUnits="userSpaceOnUse">
<stop stop-color="#524BAA"/>
<stop offset="1" stop-color="#FFAC89"/>
</linearGradient>
<linearGradient id="paint1_linear_3439_1506" x1="68.6962" y1="50.5036" x2="69.9946" y2="75.35" gradientUnits="userSpaceOnUse">
<stop stop-color="#524BAA"/>
<stop offset="1" stop-color="#FFAC89"/>
</linearGradient>
</defs>
</svg>
