<svg xmlns="http://www.w3.org/2000/svg" fill="none" viewBox="1148 72 643 734" aria-hidden="true"><path d="M1198.87 301.387C1199.84 301.382 1200.82 301.378 1201.82 301.373C1203.44 301.374 1203.44 301.374 1205.1 301.374C1206.81 301.368 1206.81 301.368 1208.56 301.363C1211.73 301.354 1214.91 301.349 1218.09 301.346C1221.51 301.342 1224.94 301.333 1228.36 301.324C1236.63 301.304 1244.91 301.294 1253.18 301.285C1257.08 301.281 1260.97 301.276 1264.86 301.27C1277.8 301.253 1290.74 301.239 1303.68 301.232C1307.05 301.23 1310.41 301.228 1313.77 301.226C1315.02 301.225 1315.02 301.225 1316.3 301.224C1329.83 301.216 1343.36 301.191 1356.89 301.158C1370.77 301.125 1384.65 301.107 1398.54 301.104C1406.34 301.102 1414.13 301.093 1421.93 301.068C1428.57 301.046 1435.22 301.038 1441.86 301.047C1445.25 301.052 1448.64 301.05 1452.02 301.031C1455.7 301.013 1459.37 301.02 1463.05 301.033C1464.12 301.022 1465.19 301.011 1466.29 301C1472.29 301.052 1475.85 301.476 1480.39 305.521C1481.75 308.238 1481.53 310.379 1481.54 313.422C1481.55 315.309 1481.55 315.309 1481.56 317.233C1481.56 318.635 1481.57 320.037 1481.57 321.438C1481.57 322.908 1481.58 324.378 1481.59 325.848C1481.61 329.848 1481.62 333.848 1481.62 337.848C1481.63 340.347 1481.64 342.845 1481.64 345.343C1481.66 353.158 1481.68 360.972 1481.68 368.786C1481.69 377.811 1481.72 386.835 1481.76 395.86C1481.79 402.832 1481.8 409.804 1481.81 416.777C1481.81 420.943 1481.82 425.108 1481.84 429.274C1481.87 433.193 1481.87 437.112 1481.86 441.032C1481.86 442.47 1481.87 443.908 1481.88 445.346C1481.9 447.31 1481.89 449.274 1481.88 451.239C1481.88 452.338 1481.88 453.436 1481.89 454.569C1481.27 458.267 1480.02 459.881 1477.39 462.521C1474.45 464.477 1472.16 464.769 1468.66 464.761C1467.24 464.766 1467.24 464.766 1465.79 464.77C1464.75 464.763 1463.72 464.755 1462.66 464.748C1461.02 464.748 1461.02 464.748 1459.34 464.749C1455.73 464.748 1452.11 464.732 1448.5 464.716C1446 464.713 1443.49 464.71 1440.98 464.708C1435.06 464.701 1429.14 464.685 1423.22 464.665C1415.82 464.64 1408.41 464.63 1401.01 464.619C1387.8 464.597 1374.6 464.562 1361.39 464.521C1361.39 472.771 1361.39 481.021 1361.39 489.521C1363.5 489.486 1365.61 489.451 1367.78 489.416C1369.83 489.392 1371.88 489.374 1373.93 489.356C1375.35 489.341 1376.78 489.321 1378.2 489.295C1380.24 489.258 1382.29 489.241 1384.34 489.228C1386.19 489.204 1386.19 489.204 1388.07 489.18C1391.69 489.551 1393.53 490.315 1396.39 492.521C1398.69 497.119 1398.44 500.56 1397.39 505.521C1397.06 506.181 1396.73 506.841 1396.39 507.521C1434.01 507.521 1471.63 507.521 1510.39 507.521C1509.73 506.531 1509.07 505.541 1508.39 504.521C1508.13 501.839 1508.13 501.839 1508.12 498.537C1508.11 496.661 1508.11 496.661 1508.1 494.748C1508.1 493.359 1508.1 491.971 1508.1 490.582C1508.09 489.122 1508.09 487.661 1508.08 486.201C1508.06 482.232 1508.06 478.263 1508.06 474.294C1508.05 470.981 1508.05 467.669 1508.04 464.356C1508.02 456.541 1508.02 448.725 1508.02 440.91C1508.02 432.846 1508 424.783 1507.97 416.72C1507.94 409.798 1507.93 402.877 1507.93 395.955C1507.93 391.821 1507.93 387.687 1507.91 383.552C1507.89 379.663 1507.89 375.775 1507.9 371.885C1507.9 370.459 1507.9 369.032 1507.89 367.606C1507.87 365.657 1507.88 363.708 1507.9 361.759C1507.9 360.668 1507.89 359.578 1507.89 358.455C1508.51 354.793 1509.82 353.159 1512.39 350.521C1518.05 347.285 1523.03 347.067 1529.45 347.087C1530.4 347.082 1531.35 347.077 1532.33 347.072C1534.33 347.065 1536.33 347.066 1538.33 347.075C1541.38 347.083 1544.43 347.055 1547.48 347.023C1549.43 347.021 1551.38 347.022 1553.33 347.025C1554.23 347.014 1555.14 347.002 1556.07 346.991C1562 347.056 1565.58 347.961 1570.39 351.521C1572.6 354.839 1572.64 357.665 1572.65 361.594C1572.66 362.839 1572.67 364.084 1572.67 365.367C1572.67 366.744 1572.67 368.121 1572.67 369.498C1572.67 370.95 1572.68 372.402 1572.68 373.854C1572.69 377.796 1572.7 381.738 1572.69 385.68C1572.69 388.971 1572.7 392.261 1572.7 395.552C1572.71 403.313 1572.71 411.074 1572.71 418.835C1572.7 426.845 1572.71 434.854 1572.73 442.863C1572.75 449.739 1572.76 456.615 1572.75 463.49C1572.75 467.597 1572.76 471.704 1572.77 475.811C1572.78 479.672 1572.78 483.533 1572.77 487.394C1572.76 488.812 1572.77 490.229 1572.78 491.646C1572.79 493.58 1572.78 495.514 1572.77 497.448C1572.77 499.072 1572.77 499.072 1572.77 500.729C1572.35 503.849 1571.49 505.221 1569.39 507.521C1570.32 507.459 1571.25 507.397 1572.2 507.333C1575.39 507.521 1575.39 507.521 1577.07 508.744C1578.76 511.022 1578.77 512.319 1578.76 515.144C1578.77 516.079 1578.78 517.013 1578.78 517.975C1578.77 519.485 1578.77 519.485 1578.75 521.025C1578.75 522.059 1578.76 523.093 1578.76 524.159C1578.75 526.345 1578.74 528.532 1578.73 530.718C1578.7 534.074 1578.71 537.429 1578.71 540.785C1578.71 542.906 1578.7 545.028 1578.69 547.15C1578.69 548.158 1578.69 549.167 1578.69 550.205C1578.69 551.137 1578.68 552.068 1578.67 553.027C1578.66 553.849 1578.66 554.67 1578.65 555.516C1578.39 557.521 1578.39 557.521 1576.39 559.521C1572.77 559.646 1572.77 559.646 1569.39 559.521C1569.39 560.564 1569.4 561.608 1569.4 562.683C1569.47 588.045 1569.52 613.407 1569.55 638.769C1569.56 651.034 1569.58 663.299 1569.62 675.564C1569.65 686.251 1569.67 696.938 1569.67 707.625C1569.68 713.286 1569.69 718.948 1569.71 724.609C1569.73 729.933 1569.74 735.258 1569.73 740.582C1569.73 742.54 1569.74 744.498 1569.75 746.456C1569.76 749.122 1569.76 751.788 1569.75 754.454C1569.76 755.235 1569.77 756.016 1569.78 756.821C1569.73 762.029 1569.73 762.029 1568.01 764.501C1565.8 765.894 1564.21 765.909 1561.61 765.919C1560.69 765.923 1559.76 765.927 1558.81 765.931C1557.85 765.92 1556.88 765.908 1555.89 765.896C1554.93 765.908 1553.97 765.919 1552.97 765.931C1551.59 765.925 1551.59 765.925 1550.17 765.919C1548.9 765.914 1548.9 765.914 1547.61 765.909C1545.39 765.521 1545.39 765.521 1543.77 764.501C1541.6 761.395 1541.99 758.107 1542.03 754.454C1542.03 753.624 1542.03 752.795 1542.02 751.94C1542.02 749.142 1542.03 746.344 1542.05 743.546C1542.05 741.513 1542.05 739.48 1542.05 737.447C1542.05 731.992 1542.07 726.537 1542.09 721.082C1542.1 715.967 1542.11 710.853 1542.11 705.738C1542.12 690.77 1542.17 675.802 1542.2 660.833C1542.27 627.4 1542.33 593.967 1542.39 559.521C1423.59 559.521 1304.79 559.521 1182.39 559.521C1182.51 626.194 1182.51 626.194 1182.66 692.866C1182.68 705.738 1182.68 705.738 1182.68 711.757C1182.68 715.976 1182.69 720.195 1182.71 724.414C1182.73 729.789 1182.73 735.163 1182.73 740.538C1182.73 742.515 1182.74 744.491 1182.75 746.468C1182.76 749.13 1182.76 751.792 1182.75 754.454C1182.76 755.234 1182.77 756.015 1182.78 756.82C1182.73 762.029 1182.73 762.029 1181.01 764.501C1178.8 765.894 1177.21 765.909 1174.61 765.919C1173.69 765.923 1172.76 765.927 1171.81 765.931C1170.36 765.914 1170.36 765.914 1168.89 765.896C1167.93 765.908 1166.97 765.919 1165.97 765.931C1164.59 765.925 1164.59 765.925 1163.17 765.919C1161.9 765.914 1161.9 765.914 1160.61 765.909C1158.39 765.521 1158.39 765.521 1156.77 764.501C1154.6 761.395 1154.99 758.107 1155.03 754.454C1155.03 753.622 1155.03 752.791 1155.02 751.934C1155.02 749.138 1155.03 746.342 1155.05 743.546C1155.05 741.545 1155.05 739.545 1155.05 737.544C1155.05 732.105 1155.07 726.665 1155.09 721.225C1155.11 715.544 1155.11 709.862 1155.11 704.181C1155.12 693.418 1155.15 682.655 1155.18 671.892C1155.21 659.641 1155.23 647.39 1155.24 635.138C1155.27 609.932 1155.32 584.727 1155.39 559.521C1154.22 559.614 1154.22 559.614 1153.02 559.708C1152.15 559.647 1151.28 559.585 1150.39 559.521C1148.29 556.369 1148.14 555.605 1148.12 552.005C1148.11 551.094 1148.1 550.183 1148.09 549.245C1148.09 548.263 1148.09 547.282 1148.09 546.271C1148.09 545.261 1148.08 544.252 1148.08 543.211C1148.07 541.076 1148.07 538.941 1148.08 536.806C1148.08 533.534 1148.06 530.262 1148.03 526.99C1148.03 524.917 1148.03 522.844 1148.03 520.771C1148.02 519.79 1148.01 518.808 1148 517.797C1148.01 516.886 1148.01 515.975 1148.02 515.037C1148.02 514.235 1148.02 513.434 1148.02 512.608C1148.49 509.958 1149.22 509.081 1151.39 507.521C1153.27 507.16 1153.27 507.16 1155.4 507.18C1156.2 507.181 1157 507.181 1157.83 507.181C1158.69 507.197 1159.55 507.212 1160.43 507.228C1161.76 507.234 1161.76 507.234 1163.11 507.241C1165.93 507.258 1168.76 507.295 1171.58 507.333C1173.49 507.349 1175.41 507.362 1177.32 507.374C1182.01 507.408 1186.7 507.459 1191.39 507.521C1191.58 506.782 1191.77 506.043 1191.97 505.282C1192.22 504.304 1192.48 503.326 1192.75 502.318C1193 501.352 1193.25 500.386 1193.51 499.391C1195.74 492.137 1200 485.831 1205.39 480.521C1207.82 479.308 1209.5 479.32 1212.2 479.271C1213.48 479.232 1213.48 479.232 1214.79 479.193C1217.39 479.521 1217.39 479.521 1219.54 481.017C1223.25 482.973 1226.56 482.952 1230.65 482.919C1231.43 482.922 1232.22 482.925 1233.03 482.928C1234.68 482.93 1236.33 482.925 1237.98 482.912C1240.52 482.896 1243.04 482.912 1245.57 482.931C1247.18 482.929 1248.79 482.925 1250.4 482.919C1251.53 482.929 1251.53 482.929 1252.69 482.938C1256.78 482.943 1256.78 482.943 1260.25 481.021C1260.63 480.526 1261 480.031 1261.39 479.521C1267.17 478.507 1272.54 479.135 1277.39 482.521C1278.03 483.532 1278.66 484.542 1279.32 485.583C1281.14 487.819 1282.1 488.455 1284.95 489.103C1288.05 489.336 1291.09 489.402 1294.2 489.396C1297.9 489.437 1301.59 489.478 1305.39 489.521C1305.39 481.271 1305.39 473.021 1305.39 464.521C1302.09 464.547 1298.79 464.573 1295.39 464.6C1284.48 464.683 1273.58 464.738 1262.68 464.78C1256.06 464.806 1249.45 464.842 1242.84 464.898C1236.46 464.952 1230.08 464.982 1223.7 464.995C1221.27 465.005 1218.83 465.023 1216.4 465.05C1212.99 465.086 1209.58 465.091 1206.17 465.089C1205.16 465.107 1204.16 465.125 1203.12 465.143C1198.58 465.11 1195.4 465.026 1191.78 462.111C1188.33 458.368 1188.26 456.621 1188.24 451.62C1188.23 450.362 1188.22 449.104 1188.21 447.808C1188.21 446.407 1188.2 445.005 1188.2 443.604C1188.19 442.134 1188.18 440.664 1188.17 439.194C1188.15 434.359 1188.13 429.524 1188.12 424.689C1188.11 423.026 1188.11 421.362 1188.1 419.699C1188.08 412.78 1188.06 405.862 1188.05 398.943C1188.03 389.023 1188 379.103 1187.94 369.182C1187.9 362.21 1187.89 355.238 1187.88 348.265C1187.88 344.099 1187.86 339.934 1187.83 335.768C1187.8 331.848 1187.8 327.93 1187.81 324.01C1187.81 322.572 1187.8 321.134 1187.78 319.696C1187.76 317.732 1187.77 315.768 1187.78 313.803C1187.78 312.704 1187.78 311.605 1187.77 310.473C1188.59 306.574 1190.42 305.074 1193.39 302.521C1194.99 300.924 1196.66 301.391 1198.87 301.387Z" fill="#3C3C3B"/><path d="M1688.39 466.083C1689.59 466.085 1690.78 466.086 1692.02 466.087C1695.89 466.585 1698.61 467.738 1701.39 470.521C1701.84 474.474 1701.7 476.077 1699.39 479.396C1698.73 480.097 1698.07 480.798 1697.39 481.521C1697.93 481.474 1698.46 481.428 1699.02 481.38C1713.24 480.725 1731.62 486.033 1742.39 495.521C1744.42 498.285 1744.42 499.292 1744.02 502.771C1743.81 503.678 1743.6 504.586 1743.39 505.521C1744.3 505.356 1745.21 505.191 1746.14 505.021C1760.3 503.114 1760.3 503.114 1765.64 506.708C1767.55 509.776 1768.2 511.007 1767.39 514.521C1765.14 517.311 1763.81 518.38 1760.39 519.521C1758.16 519.59 1755.93 519.605 1753.7 519.583C1751.93 519.57 1751.93 519.57 1750.13 519.556C1749.23 519.544 1748.32 519.533 1747.39 519.521C1747.39 520.181 1747.39 520.841 1747.39 521.521C1746.07 521.521 1744.75 521.521 1743.39 521.521C1743.41 522.09 1743.43 522.659 1743.45 523.246C1743.54 525.858 1743.59 528.47 1743.64 531.083C1743.67 531.979 1743.71 532.874 1743.74 533.796C1743.83 539.95 1742.92 543.455 1739.39 548.521C1740.25 548.484 1741.1 548.447 1741.99 548.41C1745.21 548.289 1748.43 548.202 1751.66 548.136C1753.05 548.101 1754.43 548.054 1755.82 547.993C1764.55 547.618 1770.67 548.193 1777.66 553.907C1778.58 554.766 1779.5 555.629 1780.39 556.521C1780.48 559.306 1780.49 562.067 1780.47 564.852C1780.47 566.179 1780.47 566.179 1780.46 567.532C1780.45 570.518 1780.43 573.504 1780.41 576.491C1780.4 578.622 1780.39 580.754 1780.38 582.885C1780.36 587.488 1780.34 592.09 1780.31 596.692C1780.28 603.964 1780.25 611.237 1780.23 618.509C1780.23 619.735 1780.22 620.96 1780.22 622.223C1780.21 624.729 1780.2 627.236 1780.2 629.743C1780.15 646.682 1780.09 663.622 1779.99 680.562C1779.93 691.976 1779.89 703.39 1779.87 714.805C1779.86 720.85 1779.84 726.896 1779.79 732.941C1779.74 738.627 1779.73 744.312 1779.73 749.998C1779.73 752.087 1779.71 754.177 1779.69 756.267C1779.66 759.115 1779.66 761.96 1779.68 764.808C1779.66 765.64 1779.64 766.472 1779.62 767.33C1779.59 769.921 1779.59 769.921 1780.39 773.521C1783.22 776.033 1783.22 776.033 1786.39 777.521C1789.19 780.73 1790.3 783.815 1790.83 788.021C1790.17 793.313 1788.87 797.121 1784.95 800.833C1779.68 804.308 1775.71 805.422 1769.39 804.521C1764.53 801.95 1760.17 798.85 1758.39 793.521C1757.36 783.308 1757.36 783.308 1759.47 779.646C1760.77 778.266 1762.08 776.893 1763.39 775.521C1763.72 773.211 1764.05 770.901 1764.39 768.521C1712.91 768.521 1661.43 768.521 1608.39 768.521C1608.39 770.831 1608.39 773.141 1608.39 775.521C1609.38 775.851 1610.37 776.181 1611.39 776.521C1615.55 781.031 1616.02 784.843 1615.78 790.904C1615.23 794.626 1613.86 796.717 1611.39 799.521C1610.73 800.47 1610.07 801.418 1609.39 802.396C1604.68 805.734 1599.98 805.34 1594.39 804.521C1589.91 802.361 1587.21 799.591 1584.39 795.521C1582.92 791.11 1582.55 787.115 1583.39 782.521C1585.65 778.703 1588.29 775.192 1592.63 773.806C1593.5 773.665 1593.5 773.665 1594.39 773.521C1594.23 772.874 1594.07 772.227 1593.9 771.561C1593.25 767.662 1593.23 763.822 1593.21 759.88C1593.2 759.011 1593.2 758.142 1593.19 757.247C1593.17 754.335 1593.15 751.423 1593.14 748.512C1593.12 746.424 1593.11 744.336 1593.09 742.248C1592.96 723.218 1592.89 704.188 1592.84 685.158C1592.8 671.09 1592.74 657.024 1592.63 642.957C1592.56 633.065 1592.52 623.173 1592.5 613.28C1592.5 607.371 1592.47 601.463 1592.41 595.555C1592.35 589.998 1592.34 584.442 1592.36 578.885C1592.35 576.846 1592.34 574.807 1592.31 572.769C1592.07 557.421 1592.07 557.421 1595.32 552.752C1600.16 548.792 1604.76 547.496 1610.93 547.618C1611.69 547.606 1612.45 547.594 1613.24 547.581C1615.65 547.55 1618.05 547.566 1620.45 547.583C1622.1 547.57 1623.74 547.554 1625.39 547.534C1629.39 547.494 1633.39 547.496 1637.39 547.521C1636.9 546.633 1636.41 545.745 1635.91 544.831C1634.45 541.658 1634.03 539.973 1634.1 536.56C1634.11 535.235 1634.11 535.235 1634.13 533.884C1634.15 532.98 1634.18 532.077 1634.2 531.146C1634.22 529.756 1634.22 529.756 1634.24 528.337C1634.28 526.064 1634.33 523.793 1634.39 521.521C1633.4 521.521 1632.41 521.521 1631.39 521.521C1631.39 520.861 1631.39 520.201 1631.39 519.521C1630.44 519.556 1629.49 519.59 1628.5 519.626C1627.25 519.653 1626 519.68 1624.7 519.708C1622.84 519.76 1622.84 519.76 1620.94 519.814C1616.9 519.48 1614.28 518.408 1611.39 515.521C1610.81 509.33 1610.81 509.33 1612.99 506.306C1616.19 503.927 1618.2 504.113 1622.14 504.271C1623.31 504.307 1624.48 504.343 1625.69 504.38C1626.58 504.427 1627.47 504.473 1628.39 504.521C1628.39 505.181 1628.39 505.841 1628.39 506.521C1630.7 506.521 1633.01 506.521 1635.39 506.521C1635.04 505.943 1634.69 505.366 1634.33 504.771C1632.87 501.263 1634 499.473 1635.39 496.083C1642.54 486.928 1658.5 483.241 1669.39 481.521C1673.41 481.31 1677.37 481.325 1681.39 481.521C1681.39 480.861 1681.39 480.201 1681.39 479.521C1680.77 479.232 1680.15 478.943 1679.52 478.646C1677.39 477.521 1677.39 477.521 1675.39 475.521C1675.48 472.115 1676.1 470.816 1678.51 468.384C1682.06 466.085 1684.19 466.015 1688.39 466.083Z" fill="#3C3B3B"/><path d="M1529.45 347.089C1530.4 347.083 1531.35 347.078 1532.33 347.073C1534.33 347.066 1536.33 347.068 1538.33 347.076C1541.38 347.085 1544.43 347.056 1547.48 347.024C1549.43 347.023 1551.38 347.023 1553.33 347.026C1554.23 347.015 1555.14 347.004 1556.07 346.992C1562 347.057 1565.58 347.962 1570.39 351.522C1572.6 354.84 1572.64 357.666 1572.65 361.595C1572.66 362.84 1572.67 364.085 1572.67 365.368C1572.67 366.745 1572.67 368.122 1572.67 369.499C1572.67 370.951 1572.68 372.403 1572.68 373.856C1572.69 377.798 1572.7 381.74 1572.69 385.682C1572.69 388.972 1572.7 392.262 1572.7 395.553C1572.71 403.314 1572.71 411.075 1572.71 418.837C1572.7 426.846 1572.71 434.855 1572.73 442.865C1572.75 449.74 1572.76 456.616 1572.75 463.492C1572.75 467.599 1572.76 471.706 1572.77 475.813C1572.78 479.674 1572.78 483.535 1572.77 487.396C1572.76 488.813 1572.77 490.23 1572.78 491.648C1572.79 493.582 1572.78 495.516 1572.77 497.45C1572.77 499.073 1572.77 499.073 1572.77 500.73C1572.35 503.85 1571.49 505.223 1569.39 507.522C1570.32 507.46 1571.25 507.399 1572.2 507.335C1575.39 507.522 1575.39 507.522 1577.07 508.745C1578.76 511.023 1578.77 512.321 1578.76 515.146C1578.77 516.08 1578.78 517.014 1578.78 517.977C1578.77 519.486 1578.77 519.486 1578.75 521.026C1578.75 522.06 1578.76 523.095 1578.76 524.16C1578.75 526.347 1578.74 528.533 1578.73 530.719C1578.7 534.075 1578.71 537.43 1578.71 540.786C1578.71 542.908 1578.7 545.029 1578.69 547.151C1578.69 548.16 1578.69 549.168 1578.69 550.207C1578.69 551.138 1578.68 552.069 1578.67 553.028C1578.66 553.85 1578.66 554.671 1578.65 555.518C1578.39 557.522 1578.39 557.522 1576.39 559.522C1572.77 559.647 1572.77 559.647 1569.39 559.522C1569.39 560.566 1569.4 561.609 1569.4 562.684C1569.47 588.046 1569.52 613.408 1569.55 638.771C1569.56 651.035 1569.58 663.3 1569.62 675.565C1569.65 686.252 1569.67 696.939 1569.67 707.626C1569.68 713.288 1569.69 718.949 1569.71 724.61C1569.73 729.935 1569.74 735.259 1569.73 740.583C1569.73 742.542 1569.74 744.5 1569.75 746.458C1569.76 749.124 1569.76 751.789 1569.75 754.455C1569.76 755.236 1569.77 756.017 1569.78 756.822C1569.73 762.031 1569.73 762.031 1568.01 764.502C1565.8 765.895 1564.21 765.91 1561.61 765.921C1560.69 765.925 1559.76 765.929 1558.81 765.932C1557.85 765.921 1556.88 765.909 1555.89 765.897C1554.93 765.909 1553.97 765.921 1552.97 765.932C1551.59 765.927 1551.59 765.927 1550.17 765.921C1548.9 765.916 1548.9 765.916 1547.61 765.911C1545.39 765.522 1545.39 765.522 1543.77 764.502C1541.6 761.397 1541.99 758.109 1542.03 754.455C1542.03 753.625 1542.03 752.796 1542.02 751.941C1542.02 749.143 1542.03 746.345 1542.05 743.547C1542.05 741.514 1542.05 739.481 1542.05 737.448C1542.05 731.993 1542.07 726.538 1542.09 721.083C1542.1 715.969 1542.11 710.854 1542.11 705.74C1542.12 690.771 1542.17 675.803 1542.2 660.835C1542.27 627.402 1542.33 593.969 1542.39 559.522C1423.59 559.522 1304.79 559.522 1182.39 559.522C1182.51 626.195 1182.51 626.195 1182.66 692.867C1182.68 705.74 1182.68 705.739 1182.68 711.759C1182.68 715.978 1182.69 720.197 1182.71 724.416C1182.73 729.79 1182.73 735.164 1182.73 740.539C1182.73 742.516 1182.74 744.493 1182.75 746.47C1182.76 749.132 1182.76 751.793 1182.75 754.455C1182.76 755.236 1182.77 756.017 1182.78 756.821C1182.73 762.031 1182.73 762.031 1181.01 764.502C1178.8 765.895 1177.21 765.91 1174.61 765.921C1173.69 765.925 1172.76 765.929 1171.81 765.932C1170.36 765.915 1170.36 765.915 1168.89 765.897C1167.93 765.909 1166.97 765.921 1165.97 765.932C1164.59 765.927 1164.59 765.927 1163.17 765.921C1161.9 765.916 1161.9 765.916 1160.61 765.911C1158.39 765.522 1158.39 765.522 1156.77 764.502C1154.6 761.397 1154.99 758.109 1155.03 754.455C1155.03 753.623 1155.03 752.792 1155.02 751.935C1155.02 749.139 1155.03 746.343 1155.05 743.547C1155.05 741.547 1155.05 739.546 1155.05 737.546C1155.05 732.106 1155.07 726.666 1155.09 721.227C1155.11 715.545 1155.11 709.864 1155.11 704.182C1155.12 693.419 1155.15 682.656 1155.18 671.894C1155.21 659.642 1155.23 647.391 1155.24 635.14C1155.27 609.934 1155.32 584.728 1155.39 559.522C1154.61 559.584 1153.82 559.646 1153.02 559.71C1152.15 559.648 1151.28 559.586 1150.39 559.522C1148.29 556.371 1148.14 555.606 1148.12 552.007C1148.11 551.096 1148.1 550.185 1148.09 549.246C1148.09 548.265 1148.09 547.283 1148.09 546.272C1148.09 545.263 1148.08 544.253 1148.08 543.213C1148.07 541.078 1148.07 538.943 1148.08 536.807C1148.08 533.535 1148.06 530.263 1148.03 526.991C1148.03 524.918 1148.03 522.845 1148.03 520.772C1148.02 519.791 1148.01 518.81 1148 517.799C1148.01 516.888 1148.01 515.977 1148.02 515.038C1148.02 514.236 1148.02 513.435 1148.02 512.609C1148.49 509.959 1149.22 509.083 1151.39 507.522C1153.27 507.162 1153.27 507.162 1155.4 507.182C1156.2 507.182 1157 507.182 1157.83 507.182C1158.69 507.198 1159.55 507.213 1160.43 507.229C1161.76 507.236 1161.76 507.236 1163.11 507.242C1165.93 507.259 1168.76 507.297 1171.58 507.335C1173.49 507.35 1175.41 507.364 1177.32 507.376C1182.01 507.409 1186.7 507.461 1191.39 507.522C1191.25 508.165 1191.11 508.808 1190.96 509.47C1189.91 514.464 1189.1 519.21 1189.08 524.335C1189.06 525.393 1189.05 526.451 1189.03 527.542C1189.44 530.952 1190.35 532.782 1192.39 535.522C1196.14 538.019 1199.06 538.01 1203.39 537.522C1210.02 535.628 1212.92 530.091 1216.39 524.522C1216.72 523.862 1217.05 523.202 1217.39 522.522C1218.22 522.546 1219.05 522.569 1219.91 522.593C1221 522.611 1222.08 522.629 1223.2 522.647C1224.28 522.671 1225.36 522.694 1226.47 522.718C1229.59 522.753 1229.59 522.753 1232.39 520.522C1235.12 520.327 1237.73 520.243 1240.45 520.272C1241.19 520.265 1241.92 520.257 1242.67 520.249C1248.14 520.269 1248.14 520.269 1250.39 522.522C1252.44 522.354 1254.48 522.138 1256.52 521.897C1260.06 521.807 1260.06 521.807 1263.39 522.522C1266.11 525.35 1267.79 528.139 1269.61 531.604C1271.58 534.837 1272.96 535.992 1276.39 537.522C1279.48 538.157 1282.3 538.139 1285.39 537.522C1288.15 535.341 1289.83 533.651 1291.39 530.522C1291.57 525.201 1291.31 520.005 1290.88 514.698C1290.79 513.538 1290.7 512.379 1290.61 511.184C1290.5 509.866 1290.5 509.866 1290.39 508.522C1291.69 508.512 1292.99 508.502 1294.33 508.491C1306.54 508.393 1318.75 508.291 1330.97 508.183C1337.25 508.128 1343.53 508.074 1349.81 508.025C1355.86 507.977 1361.92 507.925 1367.97 507.869C1370.29 507.849 1372.6 507.83 1374.92 507.813C1378.15 507.789 1381.38 507.759 1384.62 507.728C1385.58 507.722 1386.55 507.716 1387.54 507.71C1388.86 507.696 1388.86 507.696 1390.2 507.681C1390.97 507.674 1391.73 507.668 1392.52 507.661C1394.48 507.635 1394.48 507.635 1396.39 506.522C1397.91 506.442 1399.44 506.425 1400.96 506.44C1401.92 506.447 1402.88 506.454 1403.87 506.461C1404.93 506.474 1405.99 506.487 1407.08 506.501C1408.2 506.51 1409.31 506.52 1410.45 506.53C1414.14 506.563 1417.83 506.603 1421.52 506.643C1424.08 506.668 1426.63 506.692 1429.18 506.715C1435.23 506.771 1441.27 506.832 1447.31 506.896C1454.19 506.967 1461.06 507.033 1467.94 507.099C1482.09 507.234 1496.24 507.376 1510.39 507.522C1509.73 506.532 1509.07 505.542 1508.39 504.522C1508.13 501.84 1508.13 501.84 1508.12 498.539C1508.11 496.663 1508.11 496.663 1508.1 494.749C1508.1 493.36 1508.1 491.972 1508.1 490.583C1508.09 489.123 1508.09 487.663 1508.08 486.202C1508.06 482.233 1508.06 478.264 1508.06 474.295C1508.05 470.983 1508.05 467.67 1508.04 464.357C1508.02 456.542 1508.02 448.727 1508.02 440.911C1508.02 432.848 1508 424.785 1507.97 416.721C1507.94 409.8 1507.93 402.878 1507.93 395.957C1507.93 391.822 1507.93 387.688 1507.91 383.553C1507.89 379.664 1507.89 375.776 1507.9 371.887C1507.9 370.46 1507.9 369.033 1507.89 367.607C1507.87 365.658 1507.88 363.709 1507.9 361.76C1507.9 360.67 1507.89 359.579 1507.89 358.456C1508.51 354.795 1509.82 353.16 1512.39 350.522C1518.05 347.286 1523.03 347.068 1529.45 347.089Z" fill="#B58E6B"/><path d="M1198.87 301.387C1199.84 301.382 1200.82 301.378 1201.82 301.373C1202.9 301.373 1203.99 301.374 1205.1 301.374C1206.81 301.368 1206.81 301.368 1208.56 301.363C1211.73 301.354 1214.91 301.349 1218.09 301.346C1221.51 301.342 1224.94 301.333 1228.36 301.324C1236.63 301.304 1244.91 301.294 1253.18 301.285C1257.08 301.281 1260.97 301.276 1264.86 301.27C1277.8 301.253 1290.75 301.239 1303.69 301.232C1307.05 301.23 1310.41 301.228 1313.77 301.226C1314.6 301.225 1315.44 301.225 1316.3 301.224C1329.83 301.216 1343.36 301.191 1356.89 301.158C1370.77 301.125 1384.66 301.107 1398.54 301.104C1406.34 301.102 1414.14 301.093 1421.93 301.068C1428.57 301.046 1435.22 301.038 1441.86 301.047C1445.25 301.052 1448.64 301.05 1452.03 301.031C1455.7 301.013 1459.37 301.02 1463.05 301.033C1464.12 301.022 1465.19 301.011 1466.29 301C1472.29 301.052 1475.85 301.476 1480.39 305.521C1481.75 308.238 1481.53 310.379 1481.54 313.422C1481.55 315.309 1481.55 315.309 1481.56 317.233C1481.56 318.635 1481.57 320.037 1481.57 321.438C1481.58 322.908 1481.58 324.378 1481.59 325.848C1481.61 329.848 1481.62 333.848 1481.63 337.848C1481.63 340.347 1481.64 342.845 1481.64 345.343C1481.66 353.158 1481.68 360.972 1481.68 368.786C1481.69 377.811 1481.72 386.835 1481.76 395.86C1481.79 402.832 1481.81 409.804 1481.81 416.777C1481.81 420.943 1481.82 425.108 1481.85 429.274C1481.87 433.193 1481.87 437.112 1481.86 441.032C1481.86 442.47 1481.87 443.908 1481.88 445.346C1481.9 447.31 1481.89 449.274 1481.88 451.239C1481.88 452.338 1481.88 453.436 1481.89 454.569C1481.27 458.267 1480.02 459.881 1477.39 462.521C1474.45 464.477 1472.16 464.769 1468.66 464.761C1467.24 464.766 1467.24 464.766 1465.79 464.77C1464.75 464.763 1463.72 464.755 1462.66 464.748C1461.02 464.748 1461.02 464.748 1459.34 464.749C1455.73 464.748 1452.12 464.732 1448.5 464.716C1446 464.713 1443.49 464.71 1440.99 464.708C1435.06 464.701 1429.14 464.685 1423.22 464.665C1415.82 464.64 1408.41 464.63 1401.01 464.619C1387.8 464.597 1374.6 464.562 1361.39 464.521C1361.39 472.771 1361.39 481.021 1361.39 489.521C1363.5 489.486 1365.61 489.451 1367.78 489.416C1369.83 489.392 1371.88 489.374 1373.93 489.356C1375.36 489.341 1376.78 489.321 1378.2 489.295C1380.25 489.258 1382.29 489.241 1384.34 489.228C1386.19 489.204 1386.19 489.204 1388.07 489.18C1391.69 489.551 1393.53 490.315 1396.39 492.521C1398.68 497.088 1398.6 500.604 1397.39 505.521C1395.82 507.581 1394.97 508.415 1392.4 508.89C1391.25 508.886 1391.25 508.886 1390.08 508.882C1389.2 508.886 1388.32 508.89 1387.42 508.894C1386.46 508.883 1385.5 508.873 1384.5 508.862C1383.49 508.862 1382.47 508.862 1381.43 508.863C1378.07 508.861 1374.71 508.837 1371.35 508.814C1369.02 508.808 1366.69 508.804 1364.37 508.801C1358.24 508.79 1352.11 508.76 1345.98 508.727C1339.72 508.696 1333.47 508.683 1327.21 508.667C1314.94 508.635 1302.67 508.584 1290.39 508.521C1290.53 509.402 1290.67 510.283 1290.82 511.191C1291 512.353 1291.18 513.515 1291.37 514.712C1291.55 515.862 1291.73 517.011 1291.92 518.195C1293.4 528.606 1293.4 528.606 1290.58 533.958C1288.39 536.527 1286.76 538.297 1283.34 538.857C1277.81 538.952 1274.59 538.447 1270.39 534.521C1269.36 532.61 1268.34 530.693 1267.33 528.771C1265.72 525.776 1265.72 525.776 1263.39 523.521C1259.79 522.809 1256.83 522.931 1253.18 523.33C1251.8 523.424 1251.8 523.424 1250.39 523.521C1249.4 522.531 1249.4 522.531 1248.39 521.521C1245.7 521.322 1243.14 521.243 1240.45 521.271C1239.73 521.263 1239 521.256 1238.25 521.248C1234.43 521.262 1232.63 521.36 1229.39 523.521C1227.24 523.751 1227.24 523.751 1224.89 523.708C1224.12 523.702 1223.35 523.696 1222.55 523.689C1220.39 523.521 1220.39 523.521 1217.39 522.521C1217.08 523.511 1217.08 523.511 1216.77 524.521C1214.35 529.785 1211.3 534.195 1206.52 537.521C1202.65 538.758 1199.4 539.389 1195.39 538.521C1191.87 536.537 1189.69 534.425 1188.39 530.521C1187.31 522.143 1188.81 514.798 1191.08 506.771C1191.32 505.897 1191.57 505.022 1191.82 504.121C1194.5 495.146 1198.67 487.146 1205.39 480.521C1207.82 479.308 1209.5 479.32 1212.2 479.271C1213.48 479.232 1213.48 479.232 1214.79 479.193C1217.39 479.521 1217.39 479.521 1219.54 481.017C1223.25 482.973 1226.56 482.952 1230.65 482.919C1231.43 482.922 1232.22 482.925 1233.03 482.928C1234.68 482.93 1236.33 482.925 1237.99 482.912C1240.52 482.896 1243.05 482.912 1245.58 482.931C1247.18 482.929 1248.79 482.925 1250.4 482.919C1251.53 482.929 1251.53 482.929 1252.69 482.938C1256.78 482.943 1256.78 482.943 1260.25 481.021C1260.63 480.526 1261 480.031 1261.39 479.521C1267.17 478.507 1272.54 479.135 1277.39 482.521C1278.35 484.037 1278.35 484.037 1279.32 485.583C1281.14 487.819 1282.1 488.455 1284.95 489.103C1288.05 489.336 1291.09 489.402 1294.2 489.396C1297.9 489.437 1301.59 489.478 1305.39 489.521C1305.39 481.271 1305.39 473.021 1305.39 464.521C1302.09 464.547 1298.79 464.573 1295.39 464.6C1284.49 464.683 1273.58 464.738 1262.68 464.78C1256.06 464.806 1249.45 464.842 1242.84 464.898C1236.46 464.952 1230.08 464.982 1223.7 464.995C1221.27 465.005 1218.83 465.023 1216.4 465.05C1212.99 465.086 1209.58 465.091 1206.17 465.089C1205.16 465.107 1204.16 465.125 1203.12 465.143C1198.58 465.11 1195.4 465.026 1191.78 462.111C1188.33 458.368 1188.26 456.621 1188.24 451.62C1188.23 450.362 1188.22 449.104 1188.21 447.808C1188.21 446.407 1188.2 445.005 1188.2 443.604C1188.19 442.134 1188.18 440.664 1188.17 439.194C1188.15 434.359 1188.13 429.524 1188.12 424.689C1188.11 423.026 1188.11 421.362 1188.1 419.699C1188.08 412.78 1188.06 405.862 1188.05 398.943C1188.03 389.023 1188 379.103 1187.94 369.182C1187.91 362.21 1187.89 355.238 1187.88 348.265C1187.88 344.099 1187.87 339.934 1187.83 335.768C1187.8 331.848 1187.8 327.93 1187.81 324.01C1187.81 322.572 1187.8 321.134 1187.78 319.696C1187.76 317.732 1187.77 315.768 1187.78 313.803C1187.78 312.704 1187.78 311.605 1187.77 310.473C1188.59 306.574 1190.42 305.074 1193.39 302.521C1194.99 300.924 1196.66 301.391 1198.87 301.387ZM1197.39 312.521C1197.29 314.341 1197.27 316.165 1197.27 317.987C1197.26 319.174 1197.26 320.36 1197.26 321.582C1197.26 322.896 1197.26 324.209 1197.26 325.562C1197.26 326.95 1197.26 328.337 1197.26 329.725C1197.25 333.504 1197.25 337.283 1197.26 341.061C1197.26 345.007 1197.26 348.953 1197.26 352.9C1197.25 359.527 1197.26 366.155 1197.26 372.783C1197.27 380.457 1197.27 388.13 1197.26 395.804C1197.26 402.381 1197.25 408.957 1197.26 415.534C1197.26 419.467 1197.26 423.4 1197.26 427.333C1197.25 431.03 1197.25 434.727 1197.26 438.424C1197.26 440.436 1197.26 442.448 1197.26 444.46C1197.26 445.646 1197.26 446.832 1197.27 448.055C1197.27 449.092 1197.27 450.13 1197.27 451.199C1197.13 453.482 1197.13 453.482 1198.39 454.521C1199.85 454.619 1201.31 454.647 1202.78 454.647C1204.2 454.651 1204.2 454.651 1205.66 454.655C1206.72 454.652 1207.78 454.65 1208.87 454.648C1209.98 454.65 1211.1 454.651 1212.25 454.653C1216.02 454.657 1219.78 454.654 1223.55 454.65C1226.24 454.652 1228.93 454.653 1231.61 454.656C1238.18 454.66 1244.74 454.659 1251.3 454.656C1256.63 454.654 1261.96 454.654 1267.29 454.655C1268.05 454.655 1268.81 454.655 1269.59 454.655C1271.13 454.656 1272.66 454.656 1274.2 454.656C1288.64 454.659 1303.08 454.656 1317.52 454.65C1329.93 454.646 1342.33 454.647 1354.73 454.651C1369.12 454.657 1383.51 454.659 1397.89 454.656C1399.43 454.655 1400.96 454.655 1402.49 454.655C1403.62 454.655 1403.62 454.655 1404.78 454.654C1410.1 454.653 1415.43 454.655 1420.76 454.657C1427.25 454.66 1433.73 454.659 1440.22 454.654C1443.54 454.651 1446.85 454.651 1450.16 454.654C1453.75 454.656 1457.33 454.653 1460.91 454.648C1461.97 454.65 1463.03 454.652 1464.12 454.655C1465.07 454.652 1466.03 454.65 1467.01 454.647C1467.84 454.647 1468.67 454.646 1469.52 454.646C1471.41 454.727 1471.41 454.727 1472.39 453.521C1472.49 451.701 1472.52 449.877 1472.52 448.055C1472.52 446.275 1472.52 446.275 1472.53 444.46C1472.53 443.146 1472.52 441.833 1472.52 440.48C1472.52 439.092 1472.52 437.705 1472.53 436.317C1472.53 432.538 1472.53 428.759 1472.53 424.981C1472.52 421.034 1472.53 417.088 1472.53 413.142C1472.53 406.515 1472.53 399.887 1472.52 393.259C1472.52 385.585 1472.52 377.912 1472.52 370.238C1472.53 363.661 1472.53 357.085 1472.53 350.508C1472.53 346.575 1472.53 342.642 1472.53 338.709C1472.53 335.012 1472.53 331.315 1472.52 327.618C1472.52 325.606 1472.52 323.594 1472.53 321.582C1472.52 320.396 1472.52 319.21 1472.52 317.987C1472.52 316.95 1472.52 315.912 1472.52 314.843C1472.65 312.56 1472.65 312.56 1471.39 311.521C1469.93 311.423 1468.47 311.395 1467.01 311.395C1466.06 311.393 1465.1 311.39 1464.12 311.387C1462.53 311.391 1462.53 311.391 1460.91 311.394C1459.8 311.392 1458.68 311.391 1457.54 311.389C1453.77 311.385 1450 311.388 1446.23 311.392C1443.55 311.39 1440.86 311.388 1438.17 311.386C1431.61 311.382 1425.05 311.383 1418.48 311.386C1413.15 311.388 1407.82 311.388 1402.49 311.387C1401.73 311.387 1400.98 311.387 1400.2 311.387C1398.66 311.386 1397.12 311.386 1395.58 311.386C1381.14 311.383 1366.7 311.386 1352.26 311.392C1339.86 311.396 1327.45 311.395 1315.05 311.391C1300.66 311.385 1286.28 311.383 1271.89 311.386C1270.36 311.387 1268.83 311.387 1267.29 311.387C1266.16 311.387 1266.16 311.387 1265.01 311.388C1259.68 311.389 1254.35 311.387 1249.03 311.385C1242.54 311.382 1236.05 311.383 1229.56 311.388C1226.25 311.391 1222.93 311.391 1219.62 311.388C1216.04 311.386 1212.45 311.389 1208.87 311.394C1207.81 311.392 1206.75 311.39 1205.66 311.387C1204.71 311.39 1203.76 311.392 1202.78 311.395C1201.53 311.395 1201.53 311.395 1200.27 311.396C1198.38 311.315 1198.38 311.315 1197.39 312.521Z" fill="#252524"/><path d="M1608.39 672.521C1659.87 672.521 1711.35 672.521 1764.39 672.521C1764.39 697.271 1764.39 722.021 1764.39 747.521C1712.39 747.521 1660.39 747.521 1608.39 747.521C1608.39 722.771 1608.39 698.021 1608.39 672.521Z" fill="#5A5A5A"/><path d="M1608.39 572.521C1659.87 572.521 1711.35 572.521 1764.39 572.521C1764.39 598.921 1764.39 625.321 1764.39 652.521C1757.46 652.521 1750.53 652.521 1743.39 652.521C1743.37 646.843 1743.35 641.165 1743.34 635.487C1743.33 633.553 1743.32 631.62 1743.32 629.687C1743.3 626.914 1743.3 624.142 1743.29 621.369C1743.29 620.499 1743.28 619.63 1743.28 618.733C1743.28 616.662 1743.33 614.592 1743.39 612.521C1743.72 612.191 1744.05 611.861 1744.39 611.521C1744.62 607.505 1744.62 607.505 1744.39 603.521C1741.6 600.728 1738.65 600.901 1734.89 600.521C1727.66 599.792 1727.66 599.792 1725.39 597.521C1723.19 597.061 1723.19 597.061 1720.77 596.896C1719.95 596.822 1719.13 596.747 1718.29 596.67C1717.66 596.621 1717.04 596.572 1716.39 596.521C1715.9 598.006 1715.9 598.006 1715.39 599.521C1714.64 599.57 1713.9 599.619 1713.13 599.67C1712.14 599.745 1711.16 599.819 1710.14 599.896C1709.17 599.966 1708.19 600.036 1707.19 600.107C1704.08 600.42 1704.08 600.42 1700.39 602.521C1700.39 619.021 1700.39 635.521 1700.39 652.521C1687.77 652.834 1687.77 652.834 1683.82 652.909C1682.78 652.943 1681.74 652.976 1680.67 653.01C1679.08 653.049 1679.08 653.049 1677.46 653.089C1674.31 653.359 1674.31 653.359 1671.49 655.031C1667.75 656.832 1664.54 656.938 1660.47 656.885C1659.73 656.885 1659 656.886 1658.23 656.886C1656.68 656.884 1655.13 656.874 1653.58 656.858C1651.2 656.834 1648.83 656.837 1646.45 656.844C1644.94 656.838 1643.42 656.831 1641.91 656.822C1640.85 656.824 1640.85 656.824 1639.76 656.825C1636.09 656.772 1634.53 656.614 1631.39 654.521C1631.39 653.861 1631.39 653.201 1631.39 652.521C1623.8 652.521 1616.21 652.521 1608.39 652.521C1608.39 626.121 1608.39 599.721 1608.39 572.521Z" fill="white"/><path d="M1529.45 347.089C1530.4 347.083 1531.35 347.078 1532.33 347.073C1534.33 347.066 1536.33 347.068 1538.33 347.076C1541.38 347.085 1544.43 347.056 1547.48 347.024C1549.43 347.023 1551.38 347.023 1553.33 347.026C1554.23 347.015 1555.14 347.004 1556.07 346.992C1562 347.057 1565.58 347.962 1570.39 351.522C1572.6 354.839 1572.65 357.668 1572.66 361.595C1572.67 362.84 1572.68 364.085 1572.68 365.368C1572.68 366.745 1572.68 368.122 1572.68 369.499C1572.69 370.951 1572.69 372.403 1572.7 373.856C1572.72 377.798 1572.72 381.74 1572.73 385.682C1572.73 388.972 1572.74 392.262 1572.74 395.553C1572.76 403.314 1572.76 411.075 1572.76 418.837C1572.76 426.846 1572.78 434.855 1572.81 442.865C1572.84 449.74 1572.85 456.616 1572.85 463.492C1572.85 467.599 1572.85 471.706 1572.88 475.813C1572.89 479.674 1572.89 483.534 1572.88 487.396C1572.88 488.813 1572.88 490.23 1572.9 491.648C1572.91 493.582 1572.9 495.516 1572.89 497.45C1572.89 498.532 1572.89 499.615 1572.89 500.73C1572.27 504.206 1571.15 505.386 1568.39 507.522C1565.77 508.024 1565.77 508.024 1562.75 508.024C1561.62 508.033 1560.49 508.043 1559.32 508.052C1557.5 508.036 1557.5 508.036 1555.64 508.018C1554.39 508.02 1553.13 508.021 1551.84 508.023C1549.19 508.021 1546.55 508.012 1543.9 507.989C1540.51 507.96 1537.12 507.963 1533.73 507.976C1530.49 507.985 1527.25 507.969 1524.01 507.956C1522.79 507.959 1521.57 507.962 1520.32 507.965C1519.19 507.952 1518.06 507.939 1516.9 507.926C1515.91 507.921 1514.91 507.916 1513.89 507.91C1510.88 507.442 1510.19 506.951 1508.39 504.522C1508.01 501.84 1508.01 501.84 1508 498.539C1507.99 497.288 1507.98 496.037 1507.97 494.749C1507.98 493.36 1507.98 491.972 1507.99 490.583C1507.98 489.123 1507.97 487.663 1507.97 486.202C1507.95 482.233 1507.95 478.264 1507.96 474.295C1507.96 470.983 1507.95 467.67 1507.95 464.357C1507.93 456.542 1507.93 448.727 1507.95 440.911C1507.96 432.848 1507.94 424.785 1507.92 416.721C1507.89 409.8 1507.89 402.878 1507.89 395.957C1507.9 391.822 1507.89 387.688 1507.88 383.553C1507.86 379.664 1507.87 375.776 1507.88 371.887C1507.89 370.46 1507.88 369.034 1507.87 367.607C1507.86 365.658 1507.87 363.709 1507.89 361.76C1507.89 360.67 1507.89 359.579 1507.89 358.456C1508.52 354.796 1509.82 353.16 1512.39 350.522C1518.05 347.286 1523.03 347.068 1529.45 347.089Z" fill="#323131"/><path d="M1400.68 506.122C1401.74 506.119 1401.74 506.119 1402.82 506.115C1405.2 506.109 1407.59 506.11 1409.98 506.111C1411.68 506.108 1413.38 506.104 1415.08 506.1C1419.73 506.092 1424.37 506.089 1429.01 506.089C1432.88 506.088 1436.75 506.084 1440.62 506.08C1449.76 506.072 1458.89 506.07 1468.03 506.071C1477.46 506.071 1486.88 506.061 1496.31 506.045C1504.4 506.032 1512.48 506.026 1520.57 506.027C1525.4 506.027 1530.23 506.024 1535.07 506.014C1539.62 506.004 1544.16 506.004 1548.71 506.011C1550.38 506.012 1552.05 506.01 1553.72 506.004C1556 505.996 1558.28 506.001 1560.56 506.009C1562.47 506.008 1562.47 506.008 1564.42 506.007C1569.18 506.338 1573.54 506.797 1577 510.256C1577.23 512.961 1577.23 512.961 1577.2 516.357C1577.19 517.569 1577.18 518.781 1577.18 520.029C1577.16 521.3 1577.14 522.571 1577.12 523.881C1577.12 525.16 1577.11 526.438 1577.1 527.756C1577.07 530.923 1577.04 534.089 1577 537.256C1573.96 538.138 1571.26 538.38 1568.1 538.379C1567.11 538.381 1566.12 538.383 1565.1 538.385C1564.02 538.382 1562.93 538.379 1561.81 538.376C1560.66 538.377 1559.5 538.378 1558.31 538.379C1555.11 538.38 1551.9 538.377 1548.69 538.372C1545.24 538.368 1541.78 538.369 1538.32 538.37C1532.33 538.37 1526.34 538.367 1520.35 538.362C1511.69 538.353 1503.03 538.351 1494.37 538.35C1480.32 538.347 1466.27 538.341 1452.21 538.331C1438.56 538.322 1424.91 538.315 1411.26 538.311C1410.42 538.311 1409.58 538.31 1408.71 538.31C1404.49 538.309 1400.27 538.307 1396.05 538.306C1361.04 538.296 1326.02 538.278 1291 538.256C1291 537.256 1291 536.256 1291 535.256C1290.86 533.254 1290.71 531.253 1290.56 529.252C1290.47 528.037 1290.38 526.822 1290.29 525.57C1290.19 524.291 1290.1 523.012 1290 521.693C1289.9 520.41 1289.81 519.127 1289.71 517.805C1289.47 514.622 1289.24 511.439 1289 508.256C1290.3 508.246 1291.6 508.235 1292.94 508.225C1305.17 508.127 1317.4 508.024 1329.63 507.916C1335.92 507.861 1342.2 507.808 1348.49 507.759C1354.55 507.711 1360.62 507.659 1366.68 507.603C1369 507.582 1371.32 507.564 1373.63 507.547C1376.87 507.523 1380.1 507.493 1383.34 507.461C1384.31 507.455 1385.28 507.45 1386.28 507.444C1387.59 507.429 1387.59 507.429 1388.93 507.414C1389.7 507.408 1390.46 507.401 1391.25 507.395C1394.47 507.139 1396.93 506.127 1400.68 506.122Z" fill="#C59F7C"/><path d="M1688.39 466.083C1689.59 466.085 1690.78 466.086 1692.02 466.087C1695.89 466.585 1698.61 467.738 1701.39 470.521C1701.84 474.474 1701.7 476.077 1699.39 479.396C1698.73 480.097 1698.07 480.798 1697.39 481.521C1697.93 481.474 1698.46 481.428 1699.02 481.38C1713.24 480.725 1731.62 486.033 1742.39 495.521C1744.42 498.285 1744.42 499.292 1744.02 502.771C1743.81 503.678 1743.6 504.586 1743.39 505.521C1744.3 505.356 1745.21 505.191 1746.14 505.021C1760.3 503.114 1760.3 503.114 1765.64 506.708C1767.55 509.776 1768.2 511.007 1767.39 514.521C1765.14 517.311 1763.81 518.38 1760.39 519.521C1758.16 519.59 1755.93 519.605 1753.7 519.583C1751.94 519.57 1751.94 519.57 1750.13 519.556C1749.23 519.544 1748.32 519.533 1747.39 519.521C1747.39 520.181 1747.39 520.841 1747.39 521.521C1746.07 521.521 1744.75 521.521 1743.39 521.521C1743.42 522.08 1743.45 522.638 1743.49 523.214C1744.43 542.482 1744.43 542.482 1739.1 548.962C1730.08 557.208 1718.07 555.846 1706.54 555.857C1704.92 555.863 1703.3 555.87 1701.67 555.877C1698.29 555.889 1694.9 555.893 1691.52 555.891C1687.2 555.891 1682.88 555.919 1678.56 555.953C1675.21 555.975 1671.86 555.979 1668.52 555.978C1666.93 555.981 1665.33 555.989 1663.74 556.005C1648.73 556.138 1648.73 556.138 1642.12 552.439C1639.44 551.011 1636.82 550.908 1633.83 550.771C1632.8 550.714 1631.76 550.657 1630.7 550.599C1629.94 550.573 1629.18 550.547 1628.39 550.521C1628.39 550.191 1628.39 549.861 1628.39 549.521C1633.34 549.026 1633.34 549.026 1638.39 548.521C1637.68 547.345 1637.68 547.345 1636.95 546.146C1634.89 542.673 1634.27 540.959 1634.29 536.95C1634.3 536.055 1634.3 535.159 1634.3 534.236C1634.31 533.298 1634.32 532.361 1634.33 531.396C1634.33 530.451 1634.34 529.506 1634.34 528.533C1634.35 526.195 1634.37 523.858 1634.39 521.521C1633.4 521.521 1632.41 521.521 1631.39 521.521C1631.39 520.861 1631.39 520.201 1631.39 519.521C1629.96 519.573 1629.96 519.573 1628.51 519.626C1627.25 519.653 1626 519.68 1624.7 519.708C1622.84 519.76 1622.84 519.76 1620.94 519.814C1616.9 519.48 1614.28 518.408 1611.39 515.521C1610.81 509.33 1610.81 509.33 1612.99 506.306C1616.19 503.927 1618.2 504.113 1622.14 504.271C1623.31 504.307 1624.48 504.343 1625.69 504.38C1626.58 504.427 1627.47 504.473 1628.39 504.521C1628.39 505.181 1628.39 505.841 1628.39 506.521C1630.7 506.521 1633.01 506.521 1635.39 506.521C1635.04 505.943 1634.69 505.366 1634.33 504.771C1632.87 501.263 1634 499.473 1635.39 496.083C1642.54 486.928 1658.5 483.241 1669.39 481.521C1673.41 481.31 1677.37 481.325 1681.39 481.521C1681.39 480.861 1681.39 480.201 1681.39 479.521C1680.77 479.232 1680.15 478.943 1679.52 478.646C1677.39 477.521 1677.39 477.521 1675.39 475.521C1675.48 472.115 1676.1 470.816 1678.51 468.384C1682.07 466.085 1684.19 466.015 1688.39 466.083Z" fill="#363635"/><path d="M1195.39 463.521C1232.02 463.521 1268.65 463.521 1306.39 463.521C1306.39 472.761 1306.39 482.001 1306.39 491.521C1309.58 493.646 1310.42 493.779 1314.07 493.812C1315.02 493.825 1315.97 493.838 1316.95 493.851C1317.97 493.853 1318.99 493.855 1320.04 493.857C1321.1 493.864 1322.15 493.871 1323.23 493.878C1325.46 493.888 1327.68 493.892 1329.91 493.892C1333.31 493.896 1336.72 493.933 1340.12 493.971C1342.28 493.977 1344.45 493.981 1346.61 493.982C1348.14 494.004 1348.14 494.004 1349.7 494.026C1355.16 494.179 1355.16 494.179 1359.64 491.524C1360.51 490.533 1360.51 490.533 1361.39 489.521C1364.52 489.02 1364.52 489.02 1368.17 489.025C1369.49 489.025 1370.8 489.024 1372.16 489.023C1372.85 489.034 1373.53 489.044 1374.24 489.055C1376.32 489.084 1378.4 489.076 1380.48 489.062C1391.96 489.135 1391.96 489.135 1396.39 492.521C1398.68 497.089 1398.6 500.604 1397.39 505.521C1395.82 507.582 1394.97 508.415 1392.4 508.891C1391.25 508.886 1391.25 508.886 1390.08 508.882C1389.2 508.886 1388.32 508.89 1387.42 508.895C1386.46 508.884 1385.49 508.873 1384.5 508.862C1383.49 508.862 1382.47 508.863 1381.43 508.863C1378.07 508.861 1374.71 508.838 1371.35 508.814C1369.02 508.809 1366.69 508.805 1364.37 508.802C1358.24 508.79 1352.11 508.761 1345.97 508.727C1339.72 508.697 1333.47 508.683 1327.21 508.668C1314.94 508.636 1302.67 508.585 1290.39 508.521C1290.53 509.403 1290.67 510.284 1290.82 511.192C1291 512.354 1291.18 513.516 1291.37 514.713C1291.55 515.862 1291.73 517.011 1291.92 518.196C1293.4 528.606 1293.4 528.606 1290.58 533.959C1288.39 536.527 1286.76 538.297 1283.34 538.857C1277.81 538.953 1274.59 538.448 1270.39 534.521C1269.36 532.61 1268.34 530.693 1267.33 528.771C1265.72 525.776 1265.72 525.776 1263.39 523.521C1259.78 522.81 1256.83 522.932 1253.18 523.33C1252.26 523.393 1251.34 523.456 1250.39 523.521C1249.73 522.861 1249.07 522.201 1248.39 521.521C1245.7 521.323 1243.14 521.243 1240.45 521.271C1239.72 521.264 1239 521.256 1238.24 521.248C1234.43 521.262 1232.63 521.36 1229.39 523.521C1227.24 523.752 1227.24 523.752 1224.89 523.709C1224.12 523.703 1223.34 523.696 1222.55 523.689C1220.39 523.521 1220.39 523.521 1217.39 522.521C1217.19 523.181 1216.98 523.841 1216.77 524.521C1214.35 529.786 1211.3 534.196 1206.52 537.521C1202.65 538.758 1199.4 539.39 1195.39 538.521C1191.87 536.537 1189.69 534.426 1188.39 530.521C1187.31 522.143 1188.81 514.798 1191.08 506.771C1191.32 505.897 1191.57 505.023 1191.82 504.122C1194.5 495.147 1198.67 487.146 1205.39 480.521C1207.82 479.309 1209.5 479.32 1212.2 479.271C1213.06 479.246 1213.91 479.22 1214.79 479.193C1217.39 479.521 1217.39 479.521 1219.54 481.017C1223.25 482.974 1226.56 482.953 1230.65 482.92C1231.43 482.923 1232.22 482.926 1233.03 482.929C1234.68 482.931 1236.33 482.925 1237.98 482.913C1240.52 482.896 1243.04 482.912 1245.58 482.932C1247.18 482.93 1248.79 482.926 1250.4 482.92C1251.16 482.926 1251.91 482.932 1252.69 482.938C1256.78 482.944 1256.78 482.944 1260.25 481.021C1260.81 480.279 1260.81 480.279 1261.39 479.521C1267.17 478.507 1272.54 479.136 1277.39 482.521C1278.03 483.532 1278.67 484.543 1279.32 485.584C1281.14 487.819 1282.1 488.456 1284.95 489.103C1288.05 489.337 1291.09 489.403 1294.2 489.396C1297.9 489.438 1301.59 489.479 1305.39 489.521C1305.39 481.271 1305.39 473.021 1305.39 464.521C1269.09 464.521 1232.79 464.521 1195.39 464.521C1195.39 464.191 1195.39 463.861 1195.39 463.521Z" fill="#3E3D3C"/><path d="M1608.39 672.521C1659.87 672.521 1711.35 672.521 1764.39 672.521C1764.39 697.271 1764.39 722.021 1764.39 747.521C1757.46 747.521 1750.53 747.521 1743.39 747.521C1743.32 742.146 1743.26 736.772 1743.23 731.396C1743.21 729.567 1743.19 727.737 1743.17 725.908C1743.13 723.281 1743.11 720.656 1743.1 718.029C1743.08 717.208 1743.07 716.388 1743.05 715.542C1743.05 713.237 1743.05 713.237 1743.39 709.521C1744.38 708.861 1745.37 708.201 1746.39 707.521C1747.11 703.813 1746.96 700.246 1746.39 696.521C1744.39 693.521 1744.39 693.521 1741.39 691.521C1740.37 690.606 1739.35 689.69 1738.33 688.771C1733.42 685.009 1728.71 685.338 1722.68 685.249C1721.8 685.233 1720.93 685.217 1720.02 685.2C1711.91 685.06 1703.81 684.982 1695.7 684.921C1690.26 684.88 1684.82 684.82 1679.38 684.712C1674.11 684.608 1668.85 684.554 1663.58 684.534C1661.58 684.518 1659.58 684.485 1657.58 684.434C1645.92 684.149 1638.16 684.612 1629.35 692.674C1625.92 697.667 1626.41 702.746 1627.39 708.521C1628.05 708.851 1628.71 709.181 1629.39 709.521C1629.39 721.731 1629.39 733.941 1629.39 746.521C1622.46 746.521 1615.53 746.521 1608.39 746.521C1608.39 722.101 1608.39 697.681 1608.39 672.521Z" fill="white"/><path d="M1608.39 572.521C1659.87 572.521 1711.35 572.521 1764.39 572.521C1764.39 598.921 1764.39 625.321 1764.39 652.521C1757.46 652.521 1750.53 652.521 1743.39 652.521C1743.39 639.321 1743.39 626.121 1743.39 612.521C1743.72 612.521 1744.05 612.521 1744.39 612.521C1744.39 625.391 1744.39 638.261 1744.39 651.521C1750.66 651.521 1756.93 651.521 1763.39 651.521C1763.39 625.781 1763.39 600.041 1763.39 573.521C1712.57 573.521 1661.75 573.521 1609.39 573.521C1609.39 599.261 1609.39 625.001 1609.39 651.521C1615.99 651.521 1622.59 651.521 1629.39 651.521C1629.36 648.296 1629.32 645.071 1629.29 641.748C1629.26 638.634 1629.24 635.52 1629.23 632.405C1629.21 630.236 1629.19 628.067 1629.17 625.898C1629.13 622.786 1629.11 619.673 1629.1 616.561C1629.08 615.587 1629.07 614.613 1629.05 613.609C1629.05 612.708 1629.05 611.807 1629.05 610.879C1629.04 610.084 1629.04 609.289 1629.03 608.47C1629.21 607.506 1629.21 607.506 1629.39 606.521C1632.46 604.477 1633.08 604.27 1636.54 604.263C1637.37 604.256 1638.2 604.25 1639.06 604.244C1639.95 604.248 1640.85 604.252 1641.77 604.256C1642.69 604.254 1643.61 604.252 1644.56 604.25C1646.5 604.249 1648.45 604.252 1650.4 604.261C1653.38 604.271 1656.36 604.261 1659.34 604.248C1661.24 604.249 1663.13 604.252 1665.02 604.256C1665.91 604.252 1666.8 604.248 1667.73 604.244C1668.97 604.253 1668.97 604.253 1670.24 604.263C1671.34 604.265 1671.34 604.265 1672.46 604.268C1674.39 604.521 1674.39 604.521 1677.39 606.521C1677.58 609.146 1677.58 609.146 1677.39 611.521C1678.38 611.398 1679.37 611.274 1680.39 611.146C1685.46 611.105 1688.84 614.18 1692.39 617.521C1694.73 622.207 1693.88 628.439 1693.39 633.521C1691.76 638.207 1689.49 640.787 1685.39 643.521C1682.49 644.487 1680.42 644.788 1677.39 644.521C1677.06 646.501 1676.73 648.481 1676.39 650.521C1683.98 650.851 1691.57 651.181 1699.39 651.521C1699.39 638.321 1699.39 625.121 1699.39 611.521C1699.72 611.521 1700.05 611.521 1700.39 611.521C1700.39 625.051 1700.39 638.581 1700.39 652.521C1687.77 652.834 1687.77 652.834 1683.82 652.909C1682.78 652.943 1681.74 652.976 1680.67 653.01C1679.08 653.049 1679.08 653.049 1677.46 653.089C1674.31 653.359 1674.31 653.359 1671.49 655.031C1667.75 656.832 1664.54 656.938 1660.47 656.885C1659.73 656.885 1659 656.886 1658.23 656.886C1656.68 656.884 1655.13 656.874 1653.58 656.858C1651.2 656.834 1648.83 656.837 1646.45 656.844C1644.94 656.838 1643.42 656.831 1641.91 656.822C1640.85 656.824 1640.85 656.824 1639.76 656.825C1636.09 656.772 1634.53 656.614 1631.39 654.521C1631.39 653.861 1631.39 653.201 1631.39 652.521C1623.8 652.521 1616.21 652.521 1608.39 652.521C1608.39 626.121 1608.39 599.721 1608.39 572.521Z" fill="#C8BAAE"/><path d="M1648.21 684.149C1649.55 684.144 1649.55 684.144 1650.91 684.138C1653.85 684.13 1656.79 684.144 1659.73 684.158C1661.78 684.159 1663.82 684.158 1665.87 684.157C1670.15 684.157 1674.44 684.167 1678.73 684.186C1684.22 684.208 1689.71 684.209 1695.2 684.202C1699.43 684.199 1703.65 684.205 1707.87 684.215C1709.9 684.219 1711.92 684.22 1713.95 684.219C1716.78 684.218 1719.61 684.231 1722.44 684.247C1723.28 684.245 1724.11 684.242 1724.98 684.24C1732.03 684.304 1736.12 686.026 1741.64 690.522C1742.51 691.223 1743.38 691.924 1744.28 692.647C1746.79 694.877 1747.34 695.716 1747.56 699.053C1747.57 700.033 1747.57 701.012 1747.58 702.022C1747.59 703.001 1747.61 703.981 1747.62 704.99C1747.39 707.522 1747.39 707.522 1745.39 709.522C1731.96 711.496 1717.92 710.627 1704.39 710.522C1704.21 711.697 1704.21 711.697 1704.02 712.897C1703.39 715.522 1703.39 715.522 1701.39 717.522C1696.97 717.921 1692.54 717.851 1688.11 717.837C1685.9 717.834 1683.7 717.858 1681.49 717.883C1680.09 717.885 1678.7 717.886 1677.3 717.885C1676.02 717.888 1674.75 717.891 1673.43 717.894C1672.43 717.771 1671.43 717.648 1670.39 717.522C1668.24 714.294 1668.19 713.238 1668.39 709.522C1666.63 709.769 1666.63 709.769 1664.83 710.022C1654.93 711.102 1644.94 710.628 1635.02 710.084C1633.9 710.025 1633.9 710.025 1632.76 709.966C1627.51 709.644 1627.51 709.644 1626.39 708.522C1625.7 704.07 1625.58 699.96 1626.39 695.522C1628.91 692.1 1631.89 689.878 1635.39 687.522C1635.92 687.002 1636.45 686.482 1636.99 685.946C1640.58 683.818 1644.16 684.112 1648.21 684.149Z" fill="#494949"/><path d="M1529.7 347.229C1530.67 347.234 1531.63 347.238 1532.63 347.242C1535.7 347.259 1538.76 347.297 1541.83 347.335C1543.92 347.35 1546 347.364 1548.09 347.376C1553.19 347.409 1558.29 347.461 1563.39 347.522C1563.39 347.852 1563.39 348.182 1563.39 348.522C1544.58 349.017 1544.58 349.017 1525.39 349.522C1526.71 350.842 1528.03 352.162 1529.39 353.522C1529.89 356.33 1529.89 356.33 1529.88 359.633C1529.89 360.886 1529.89 362.14 1529.9 363.431C1529.89 364.818 1529.87 366.204 1529.86 367.591C1529.86 369.053 1529.86 370.515 1529.87 371.977C1529.87 375.946 1529.85 379.915 1529.83 383.884C1529.81 388.036 1529.81 392.189 1529.81 396.342C1529.8 403.316 1529.78 410.29 1529.75 417.264C1529.71 426.216 1529.69 435.168 1529.68 444.119C1529.67 451.815 1529.66 459.51 1529.64 467.206C1529.63 468.857 1529.63 470.509 1529.62 472.161C1529.61 476.87 1529.6 481.58 1529.58 486.289C1529.57 487.716 1529.57 489.143 1529.56 490.57C1529.56 492.517 1529.55 494.465 1529.54 496.412C1529.53 497.502 1529.53 498.591 1529.53 499.714C1529.39 502.522 1529.39 502.522 1528.39 506.522C1523.44 506.522 1518.49 506.522 1513.39 506.522C1513.06 505.202 1512.73 503.882 1512.39 502.522C1511.73 502.192 1511.07 501.862 1510.39 501.522C1509.73 502.512 1509.07 503.502 1508.39 504.522C1508.3 485.182 1508.23 465.841 1508.18 446.5C1508.16 437.52 1508.14 428.539 1508.09 419.559C1508.05 411.732 1508.02 403.906 1508.02 396.079C1508.01 391.934 1508 387.79 1507.97 383.645C1507.94 379.744 1507.93 375.843 1507.94 371.942C1507.94 370.51 1507.93 369.079 1507.91 367.647C1507.89 365.692 1507.9 363.736 1507.91 361.78C1507.91 360.686 1507.9 359.592 1507.9 358.465C1508.51 354.794 1509.82 353.165 1512.39 350.522C1518.14 347.203 1523.17 347.12 1529.7 347.229Z" fill="#393938"/><path d="M1716.39 596.521C1717.85 596.467 1719.31 596.429 1720.77 596.396C1721.58 596.373 1722.39 596.35 1723.23 596.326C1725.39 596.521 1725.39 596.521 1727.39 598.521C1730.56 599.017 1733.7 599.358 1736.89 599.645C1739.73 599.953 1741.95 600.226 1744.35 601.826C1746.26 604.931 1745.57 607.967 1745.39 611.521C1744.4 611.851 1743.41 612.181 1742.39 612.521C1742.42 613.743 1742.44 614.964 1742.47 616.222C1742.56 620.754 1742.62 625.286 1742.67 629.819C1742.69 631.78 1742.73 633.742 1742.77 635.703C1742.83 638.523 1742.86 641.342 1742.88 644.162C1742.91 645.038 1742.93 645.914 1742.96 646.817C1742.96 650.893 1742.95 652.838 1740.32 656.075C1736.69 657.869 1734.12 658.023 1730.08 658.018C1729.39 658.019 1728.7 658.02 1727.98 658.022C1726.53 658.02 1725.07 658.009 1723.62 657.988C1721.4 657.959 1719.18 657.967 1716.96 657.98C1704.81 657.927 1704.81 657.927 1700.39 654.521C1699.75 652.187 1699.75 652.187 1699.73 649.407C1699.71 648.367 1699.69 647.326 1699.67 646.253C1699.68 645.131 1699.68 644.009 1699.68 642.854C1699.67 641.704 1699.65 640.554 1699.64 639.369C1699.6 635.69 1699.59 632.013 1699.58 628.334C1699.56 625.842 1699.53 623.351 1699.5 620.859C1699.44 614.747 1699.41 608.634 1699.39 602.521C1703.19 600.114 1705.63 599.148 1710.14 598.959C1712.97 598.877 1712.97 598.877 1715.39 598.521C1715.72 597.861 1716.05 597.201 1716.39 596.521Z" fill="#323232"/><path d="M1688.39 466.083C1689.59 466.085 1690.78 466.086 1692.02 466.087C1695.89 466.585 1698.61 467.738 1701.39 470.521C1701.84 474.474 1701.7 476.077 1699.39 479.396C1698.73 480.097 1698.07 480.798 1697.39 481.521C1697.93 481.474 1698.46 481.428 1699.02 481.38C1713.37 480.719 1731.45 486.098 1742.39 495.521C1742.06 496.841 1741.73 498.161 1741.39 499.521C1714.67 508.142 1662.08 511.467 1636.02 499.423C1635.48 499.125 1634.94 498.828 1634.39 498.521C1637.38 491.554 1644.58 489.213 1651.14 486.396C1661.14 482.59 1670.72 481.001 1681.39 481.521C1681.39 480.861 1681.39 480.201 1681.39 479.521C1680.46 479.088 1680.46 479.088 1679.52 478.646C1677.39 477.521 1677.39 477.521 1675.39 475.521C1675.48 472.115 1676.1 470.816 1678.51 468.384C1682.06 466.085 1684.19 466.015 1688.39 466.083Z" fill="#3D3D3C"/><path d="M1155.4 507.181C1156.21 507.181 1157.01 507.181 1157.83 507.181C1158.69 507.197 1159.55 507.212 1160.43 507.228C1161.76 507.235 1161.76 507.235 1163.11 507.241C1165.94 507.258 1168.76 507.296 1171.58 507.334C1173.49 507.349 1175.41 507.362 1177.32 507.375C1182.01 507.408 1186.7 507.46 1191.39 507.521C1191.25 508.165 1191.11 508.81 1190.96 509.474C1189.91 514.446 1189.13 519.102 1189.2 524.209C1189.21 525.761 1189.21 525.761 1189.22 527.345C1189.41 530.782 1189.86 534.123 1190.39 537.521C1176.72 538.662 1163.1 538.619 1149.39 538.521C1149.39 544.461 1149.39 550.401 1149.39 556.521C1149.06 556.521 1148.73 556.521 1148.39 556.521C1148.32 550.025 1148.26 543.529 1148.23 537.033C1148.21 534.822 1148.19 532.611 1148.17 530.401C1148.13 527.226 1148.11 524.052 1148.1 520.877C1148.08 519.886 1148.07 518.895 1148.05 517.875C1148.05 516.954 1148.05 516.033 1148.05 515.084C1148.04 514.274 1148.04 513.463 1148.03 512.628C1148.77 508.306 1151.28 507.142 1155.4 507.181Z" fill="#C6A17D"/><path d="M1520.39 348.521C1534.25 348.521 1548.11 348.521 1562.39 348.521C1562.39 348.851 1562.39 349.181 1562.39 349.521C1561.72 349.531 1561.04 349.54 1560.34 349.55C1557.28 349.604 1554.21 349.687 1551.14 349.771C1550.08 349.786 1549.01 349.8 1547.92 349.814C1546.89 349.847 1545.87 349.879 1544.81 349.912C1543.87 349.933 1542.93 349.954 1541.96 349.976C1538.58 350.694 1537.53 351.831 1535.39 354.521C1534.8 357.459 1534.8 357.459 1534.91 360.773C1534.9 362.057 1534.9 363.342 1534.89 364.665C1534.91 366.086 1534.92 367.508 1534.94 368.929C1534.94 370.427 1534.94 371.925 1534.94 373.423C1534.93 377.489 1534.96 381.554 1534.99 385.62C1535.01 389.87 1535.01 394.119 1535.02 398.369C1535.03 406.415 1535.06 414.461 1535.1 422.508C1535.15 431.668 1535.17 440.829 1535.19 449.99C1535.23 468.834 1535.31 487.678 1535.39 506.521C1545.95 506.521 1556.51 506.521 1567.39 506.521C1567.39 505.861 1567.39 505.201 1567.39 504.521C1568.05 504.521 1568.71 504.521 1569.39 504.521C1569.72 501.551 1570.05 498.581 1570.39 495.521C1570.72 495.521 1571.05 495.521 1571.39 495.521C1571.47 496.958 1571.53 498.396 1571.58 499.834C1571.63 501.035 1571.63 501.035 1571.68 502.26C1571.39 504.521 1571.39 504.521 1570.22 506.14C1567.7 508.047 1566 507.896 1562.85 507.894C1561.72 507.9 1560.58 507.906 1559.41 507.913C1558.19 507.903 1556.96 507.894 1555.7 507.885C1554.44 507.885 1553.19 507.886 1551.89 507.886C1549.24 507.884 1546.58 507.876 1543.92 507.858C1540.51 507.835 1537.1 507.834 1533.7 507.841C1530.45 507.845 1527.2 507.833 1523.95 507.822C1522.72 507.823 1521.5 507.824 1520.23 507.825C1519.1 507.815 1517.97 507.806 1516.8 507.796C1515.8 507.792 1514.81 507.787 1513.78 507.782C1511.39 507.521 1511.39 507.521 1509.39 505.521C1509.15 502.948 1509.15 502.948 1509.15 499.624C1509.15 498.368 1509.15 497.111 1509.14 495.817C1509.15 494.417 1509.16 493.017 1509.16 491.617C1509.16 490.148 1509.16 488.68 1509.16 487.212C1509.16 483.218 1509.17 479.225 1509.19 475.231C1509.2 471.061 1509.2 466.89 1509.2 462.719C1509.21 454.818 1509.23 446.917 1509.25 439.015C1509.27 430.022 1509.28 421.028 1509.29 412.034C1509.31 393.53 1509.35 375.026 1509.39 356.521C1509.72 356.521 1510.05 356.521 1510.39 356.521C1510.39 404.371 1510.39 452.221 1510.39 501.521C1513.03 501.521 1515.67 501.521 1518.39 501.521C1518.39 501.851 1518.39 502.181 1518.39 502.521C1516.41 502.521 1514.43 502.521 1512.39 502.521C1512.72 503.841 1513.05 505.161 1513.39 506.521C1518.34 506.521 1523.29 506.521 1528.39 506.521C1528.46 486.625 1528.51 466.728 1528.55 446.831C1528.56 437.593 1528.58 428.355 1528.62 419.116C1528.65 411.066 1528.67 403.016 1528.67 394.966C1528.68 390.702 1528.69 386.438 1528.71 382.174C1528.73 378.162 1528.74 374.151 1528.73 370.14C1528.73 368.666 1528.74 367.192 1528.75 365.718C1528.76 363.709 1528.76 361.7 1528.75 359.691C1528.75 358.565 1528.76 357.44 1528.76 356.28C1528.62 353.517 1528.62 353.517 1527.04 351.679C1524.9 350.174 1522.96 349.868 1520.39 349.521C1520.39 349.191 1520.39 348.861 1520.39 348.521Z" fill="#1A1A19"/><path d="M1765.39 768.521C1766.05 769.841 1766.71 771.161 1767.39 772.521C1772.78 772.291 1772.78 772.291 1777.39 769.959C1777.72 769.485 1778.05 769.01 1778.39 768.521C1778.39 770.171 1778.39 771.821 1778.39 773.521C1779.3 773.748 1780.21 773.975 1781.14 774.209C1785.54 775.987 1787.08 778.56 1789.64 782.396C1791.24 786.921 1790.65 790.721 1789.2 795.209C1786.62 799.933 1783.26 802.405 1778.39 804.521C1773.73 805.251 1770.27 804.988 1766.08 802.771C1759.69 797.425 1759.69 797.425 1758.39 793.521C1757.49 783.139 1757.49 783.139 1760.2 778.271C1762.39 776.521 1762.39 776.521 1765.39 776.521C1765.39 773.881 1765.39 771.241 1765.39 768.521Z" fill="#333333"/><path d="M1396.39 499.521C1397.02 502.396 1397.02 502.396 1397.39 505.521C1395.39 507.521 1395.39 507.521 1393.49 507.768C1392.71 507.766 1391.93 507.764 1391.13 507.762C1389.78 507.766 1389.78 507.766 1388.42 507.77C1387.43 507.763 1386.45 507.756 1385.43 507.749C1384.4 507.749 1383.37 507.749 1382.3 507.749C1378.87 507.748 1375.44 507.732 1372.01 507.717C1369.64 507.713 1367.26 507.71 1364.89 507.708C1358.63 507.701 1352.37 507.681 1346.12 507.659C1339.74 507.638 1333.35 507.629 1326.97 507.619C1314.45 507.598 1301.92 507.564 1289.39 507.521C1288.73 505.211 1288.07 502.901 1287.39 500.521C1288.61 500.527 1289.82 500.532 1291.08 500.537C1324.84 500.669 1358.57 500.259 1392.32 499.559C1393.68 499.535 1395.04 499.521 1396.39 499.521Z" fill="#252524"/><path d="M1196.68 301.025C1197.53 301.027 1198.38 301.028 1199.26 301.03C1200.24 301.022 1201.22 301.014 1202.24 301.006C1203.31 301.018 1204.39 301.029 1205.5 301.041C1206.65 301.038 1207.8 301.034 1208.98 301.031C1212.16 301.025 1215.34 301.038 1218.53 301.058C1221.96 301.075 1225.39 301.069 1228.83 301.066C1234.77 301.064 1240.72 301.077 1246.67 301.099C1255.27 301.132 1263.87 301.142 1272.47 301.147C1286.42 301.156 1300.37 301.183 1314.32 301.22C1327.88 301.257 1341.43 301.285 1354.98 301.302C1355.82 301.304 1356.65 301.305 1357.51 301.306C1361.7 301.311 1365.89 301.316 1370.09 301.321C1404.85 301.362 1439.62 301.433 1474.39 301.522C1474.39 302.512 1474.39 303.502 1474.39 304.522C1333.81 305.017 1333.81 305.017 1190.39 305.522C1194.39 301.522 1194.39 301.522 1196.68 301.025Z" fill="#40403E"/><path d="M1639.39 547.521C1644.83 547.269 1644.83 547.269 1647.61 548.513C1651.15 549.797 1654.44 549.801 1658.15 549.78C1659.29 549.785 1659.29 549.785 1660.47 549.791C1662.98 549.799 1665.5 549.794 1668.02 549.787C1669.77 549.788 1671.53 549.79 1673.28 549.793C1676.96 549.796 1680.63 549.791 1684.3 549.782C1689.01 549.771 1693.71 549.777 1698.42 549.789C1702.04 549.796 1705.66 549.794 1709.28 549.789C1711.02 549.788 1712.76 549.789 1714.49 549.794C1716.92 549.799 1719.34 549.791 1721.76 549.78C1722.48 549.784 1723.2 549.788 1723.94 549.792C1727.65 549.761 1730.19 549.396 1733.39 547.521C1736.14 547.396 1736.14 547.396 1738.39 547.521C1737.83 549.334 1737.83 549.334 1736.39 551.521C1729.69 555.001 1723.51 555.641 1716.06 555.698C1715.35 555.705 1714.64 555.711 1713.91 555.718C1711.59 555.738 1709.26 555.75 1706.93 555.76C1706.13 555.764 1705.34 555.768 1704.51 555.772C1700.28 555.793 1696.05 555.807 1691.82 555.816C1687.47 555.828 1683.12 555.862 1678.77 555.902C1675.4 555.928 1672.04 555.936 1668.67 555.94C1667.07 555.945 1665.47 555.956 1663.86 555.975C1648.71 556.14 1648.71 556.14 1642.11 552.441C1639.43 551.009 1636.82 550.909 1633.83 550.771C1632.8 550.715 1631.76 550.658 1630.7 550.599C1629.94 550.574 1629.18 550.548 1628.39 550.521C1628.39 550.191 1628.39 549.861 1628.39 549.521C1632.02 549.521 1635.65 549.521 1639.39 549.521C1639.39 548.861 1639.39 548.201 1639.39 547.521Z" fill="#252525"/><path d="M1633.39 499.521C1637.7 500.01 1641.9 500.623 1646.14 501.521C1673.31 506.447 1707.35 505.989 1734.39 500.521C1735.83 500.459 1737.27 500.435 1738.7 500.459C1740.53 500.49 1740.53 500.49 1742.39 500.521C1742.39 501.841 1742.39 503.161 1742.39 504.521C1739.93 505.006 1737.48 505.484 1735.02 505.959C1734 506.161 1734 506.161 1732.96 506.367C1722.79 508.315 1712.75 508.69 1702.42 508.725C1701.43 508.729 1701.43 508.729 1700.43 508.733C1696.96 508.748 1693.49 508.757 1690.03 508.762C1687.2 508.766 1684.37 508.78 1681.54 508.803C1642.15 509.113 1642.15 509.113 1633.39 502.521C1633.39 501.531 1633.39 500.541 1633.39 499.521Z" fill="#201F1F"/><path d="M1765.64 506.709C1767.55 509.777 1768.2 511.008 1767.39 514.522C1765.14 517.312 1763.81 518.381 1760.39 519.522C1758.16 519.591 1755.93 519.606 1753.7 519.584C1751.94 519.571 1751.94 519.571 1750.13 519.557C1749.23 519.545 1748.32 519.534 1747.39 519.522C1747.39 520.182 1747.39 520.842 1747.39 521.522C1746.07 521.852 1744.75 522.182 1743.39 522.522C1743.06 524.172 1742.73 525.822 1742.39 527.522C1742.06 527.522 1741.73 527.522 1741.39 527.522C1741.39 525.542 1741.39 523.562 1741.39 521.522C1740.59 521.542 1739.78 521.563 1738.95 521.584C1736.39 521.522 1736.39 521.522 1735.39 520.522C1735.03 514.06 1735.03 514.06 1737.39 510.522C1738.73 510.188 1740.06 509.855 1741.39 509.522C1742.05 508.532 1742.71 507.542 1743.39 506.522C1750.31 503.665 1759.26 502.417 1765.64 506.709Z" fill="#2A2929"/><path d="M1688.39 466.083C1689.59 466.085 1690.78 466.086 1692.02 466.087C1695.89 466.585 1698.61 467.738 1701.39 470.521C1701.64 473.396 1701.64 473.396 1701.39 476.521C1700.41 477.543 1699.41 478.541 1698.39 479.521C1697.73 481.831 1697.07 484.141 1696.39 486.521C1691.44 486.521 1686.49 486.521 1681.39 486.521C1680.39 481.521 1680.39 481.521 1681.39 479.521C1680.46 479.088 1680.46 479.088 1679.52 478.646C1677.39 477.521 1677.39 477.521 1675.39 475.521C1675.48 472.115 1676.1 470.816 1678.51 468.384C1682.06 466.085 1684.19 466.015 1688.39 466.083Z" fill="#242423"/><path d="M1543.39 559.521C1551.64 559.521 1559.89 559.521 1568.39 559.521C1568.39 563.811 1568.39 568.101 1568.39 572.521C1560.14 572.521 1551.89 572.521 1543.39 572.521C1543.39 568.231 1543.39 563.941 1543.39 559.521Z" fill="#A4805E"/><path d="M1678.33 708.388C1679.02 708.387 1679.7 708.386 1680.4 708.385C1681.85 708.384 1683.29 708.386 1684.73 708.39C1686.95 708.396 1689.17 708.39 1691.38 708.384C1692.78 708.385 1694.18 708.386 1695.58 708.388C1696.86 708.389 1698.14 708.39 1699.46 708.391C1702.39 708.521 1702.39 708.521 1703.39 709.521C1703.58 712.458 1703.58 712.458 1703.39 715.521C1701.39 717.521 1701.39 717.521 1698.32 717.748C1697.03 717.737 1695.74 717.727 1694.42 717.716C1693.73 717.713 1693.04 717.71 1692.34 717.707C1690.15 717.696 1687.96 717.671 1685.77 717.646C1684.28 717.636 1682.8 717.627 1681.31 717.618C1677.67 717.596 1674.03 717.562 1670.39 717.521C1669.04 714.812 1669.33 712.511 1669.39 709.521C1672.35 708.039 1675.03 708.391 1678.33 708.388Z" fill="#373737"/><path d="M1608.39 572.521C1608.72 572.521 1609.05 572.521 1609.39 572.521C1609.39 598.591 1609.39 624.661 1609.39 651.521C1616.32 651.521 1623.25 651.521 1630.39 651.521C1630.39 650.861 1630.39 650.201 1630.39 649.521C1631 649.666 1631.61 649.81 1632.23 649.959C1640.67 651.748 1648.89 651.689 1657.45 651.521C1660.24 651.468 1663.02 651.428 1665.8 651.396C1667.02 651.373 1668.24 651.35 1669.49 651.326C1672.39 651.521 1672.39 651.521 1674.39 653.521C1669.69 656.294 1665.83 656.955 1660.47 656.885C1659.73 656.885 1659 656.886 1658.23 656.886C1656.68 656.884 1655.13 656.874 1653.58 656.858C1651.2 656.834 1648.83 656.837 1646.45 656.844C1644.94 656.838 1643.42 656.831 1641.91 656.822C1640.85 656.824 1640.85 656.824 1639.76 656.825C1636.09 656.772 1634.53 656.614 1631.39 654.521C1631.39 653.861 1631.39 653.201 1631.39 652.521C1623.8 652.521 1616.21 652.521 1608.39 652.521C1608.39 626.121 1608.39 599.721 1608.39 572.521Z" fill="#AAA097"/><path d="M1741.39 612.521C1741.72 612.521 1742.05 612.521 1742.39 612.521C1742.52 618.287 1742.61 624.052 1742.67 629.819C1742.69 631.78 1742.73 633.742 1742.77 635.703C1742.83 638.523 1742.86 641.342 1742.88 644.162C1742.91 645.038 1742.93 645.914 1742.96 646.817C1742.96 650.893 1742.95 652.838 1740.32 656.075C1736.69 657.869 1734.12 658.023 1730.08 658.018C1729.39 658.019 1728.7 658.02 1727.98 658.022C1726.53 658.02 1725.07 658.009 1723.62 657.988C1721.4 657.959 1719.18 657.967 1716.96 657.98C1704.67 657.926 1704.67 657.926 1700.39 654.521C1700.08 651.834 1700.08 651.834 1700.39 649.521C1701.06 649.847 1701.73 650.172 1702.42 650.507C1706 651.728 1709.26 651.791 1712.99 651.752C1713.71 651.751 1714.43 651.751 1715.17 651.751C1716.68 651.748 1718.19 651.74 1719.7 651.727C1722.02 651.709 1724.33 651.707 1726.64 651.707C1728.11 651.702 1729.58 651.696 1731.06 651.689C1731.75 651.688 1732.44 651.687 1733.15 651.686C1736.17 651.656 1738.5 651.485 1741.39 650.521C1741.39 637.981 1741.39 625.441 1741.39 612.521Z" fill="#282827"/><path d="M1632.39 604.522C1637.45 604.423 1642.5 604.35 1647.55 604.302C1649.27 604.282 1650.99 604.254 1652.71 604.22C1655.18 604.171 1657.65 604.149 1660.13 604.131C1661.28 604.1 1661.28 604.1 1662.45 604.068C1666.13 604.067 1668 604.204 1670.91 606.546C1671.4 607.198 1671.89 607.85 1672.39 608.522C1668.87 609.696 1665.69 609.665 1662.02 609.654C1661.3 609.655 1660.58 609.656 1659.84 609.657C1658.32 609.658 1656.8 609.656 1655.29 609.652C1652.97 609.647 1650.65 609.652 1648.33 609.658C1646.85 609.658 1645.37 609.656 1643.9 609.654C1643.2 609.656 1642.51 609.658 1641.8 609.661C1638.52 609.645 1635.53 609.529 1632.39 608.522C1632.39 607.202 1632.39 605.882 1632.39 604.522Z" fill="#AC9C8C"/><path d="M1509.39 356.521C1509.72 356.521 1510.05 356.521 1510.39 356.521C1510.39 404.371 1510.39 452.221 1510.39 501.521C1513.03 501.521 1515.67 501.521 1518.39 501.521C1518.39 501.851 1518.39 502.181 1518.39 502.521C1516.41 502.521 1514.43 502.521 1512.39 502.521C1512.72 503.841 1513.05 505.161 1513.39 506.521C1518.34 506.521 1523.29 506.521 1528.39 506.521C1528.39 506.851 1528.39 507.181 1528.39 507.521C1525.6 507.575 1522.81 507.615 1520.02 507.646C1518.83 507.672 1518.83 507.672 1517.61 507.697C1515.54 507.715 1513.46 507.625 1511.39 507.521C1509.39 505.521 1509.39 505.521 1509.15 502.948C1509.15 501.303 1509.15 501.303 1509.15 499.624C1509.15 498.368 1509.15 497.111 1509.14 495.817C1509.15 494.417 1509.16 493.017 1509.16 491.617C1509.16 490.148 1509.16 488.68 1509.16 487.212C1509.16 483.218 1509.17 479.225 1509.19 475.231C1509.2 471.061 1509.2 466.89 1509.2 462.719C1509.21 454.818 1509.23 446.917 1509.25 439.015C1509.27 430.022 1509.28 421.028 1509.29 412.034C1509.31 393.53 1509.35 375.026 1509.39 356.521Z" fill="#272828"/><path d="M1543.39 466.521C1545.04 466.851 1546.69 467.181 1548.39 467.521C1548.39 476.431 1548.39 485.341 1548.39 494.521C1547.07 494.851 1545.75 495.181 1544.39 495.521C1542.39 493.521 1542.39 493.521 1542.15 490.924C1542.15 489.851 1542.16 488.779 1542.16 487.674C1542.16 486.512 1542.16 485.35 1542.17 484.152C1542.18 482.934 1542.19 481.715 1542.2 480.459C1542.2 479.236 1542.21 478.014 1542.21 476.754C1542.25 467.662 1542.25 467.662 1543.39 466.521Z" fill="#202020"/><path d="M1214.39 518.521C1215.71 519.181 1217.03 519.841 1218.39 520.521C1217.09 524.019 1215.58 527.039 1213.52 530.146C1213.02 530.902 1212.53 531.657 1212.02 532.436C1209.52 535.635 1207.24 537.239 1203.39 538.521C1196.25 539.097 1196.25 539.097 1192.39 536.521C1191.73 535.861 1191.07 535.201 1190.39 534.521C1190.72 533.201 1191.05 531.881 1191.39 530.521C1192.05 530.851 1192.71 531.181 1193.39 531.521C1197.42 532.865 1200.14 532.927 1204.39 532.521C1208.33 529.932 1210.18 525.534 1212.34 521.447C1213.39 519.521 1213.39 519.521 1214.39 518.521Z" fill="#353332"/><path d="M1208.39 488.521C1210.06 488.479 1211.73 488.481 1213.39 488.521C1214.39 489.521 1214.39 489.521 1214.45 492.084C1214.43 492.888 1214.41 493.693 1214.39 494.521C1216.04 494.521 1217.69 494.521 1219.39 494.521C1220.02 496.396 1220.02 496.396 1220.39 498.521C1219.73 499.181 1219.07 499.841 1218.39 500.521C1217.07 500.521 1215.75 500.521 1214.39 500.521C1214.06 502.171 1213.73 503.821 1213.39 505.521C1211.74 505.521 1210.09 505.521 1208.39 505.521C1208.39 503.541 1208.39 501.561 1208.39 499.521C1206.74 499.851 1205.09 500.181 1203.39 500.521C1203.01 498.865 1202.68 497.197 1202.39 495.521C1203.39 494.521 1203.39 494.521 1205.95 494.459C1207.16 494.49 1207.16 494.49 1208.39 494.521C1208.39 492.541 1208.39 490.561 1208.39 488.521Z" fill="#242423"/><path d="M1607.39 673.521C1607.72 673.521 1608.05 673.521 1608.39 673.521C1608.46 682.875 1608.51 692.228 1608.55 701.581C1608.56 705.924 1608.58 710.266 1608.62 714.609C1608.65 718.797 1608.67 722.986 1608.68 727.175C1608.68 728.775 1608.69 730.376 1608.71 731.976C1608.73 734.213 1608.73 736.448 1608.73 738.685C1608.74 739.96 1608.75 741.234 1608.75 742.548C1608.57 744.02 1608.57 744.02 1608.39 745.521C1606.91 746.511 1606.91 746.511 1605.39 747.521C1605.37 741.843 1605.35 736.165 1605.34 730.487C1605.33 728.553 1605.32 726.62 1605.32 724.687C1605.3 721.914 1605.3 719.142 1605.29 716.369C1605.29 715.499 1605.28 714.63 1605.28 713.733C1605.28 711.662 1605.33 709.592 1605.39 707.521C1605.89 707.026 1605.89 707.026 1606.39 706.521C1606.55 704.075 1606.65 701.654 1606.71 699.205C1606.74 698.108 1606.74 698.108 1606.77 696.99C1606.84 694.646 1606.9 692.303 1606.95 689.959C1607 688.374 1607.04 686.788 1607.08 685.203C1607.19 681.309 1607.29 677.415 1607.39 673.521Z" fill="#2B2B2A"/><path d="M1677.39 618.521C1682.39 618.521 1682.39 618.521 1684.18 619.682C1685.83 622.19 1685.79 623.974 1685.77 626.959C1685.77 627.906 1685.78 628.854 1685.79 629.83C1685.32 632.981 1684.69 634.322 1682.39 636.521C1680.74 636.851 1679.09 637.181 1677.39 637.521C1677.39 631.251 1677.39 624.981 1677.39 618.521Z" fill="#EEE5DE"/><path d="M1259.39 505.521C1261.39 506.583 1261.39 506.583 1262.39 508.521C1262.06 514.854 1262.06 514.854 1259.39 517.521C1256.11 517.877 1254.02 517.817 1251.02 516.396C1249.39 514.521 1249.39 514.521 1248.95 511.521C1249.39 508.521 1249.39 508.521 1250.45 506.646C1253.5 504.878 1255.95 505.152 1259.39 505.521Z" fill="#282827"/><path d="M1233.44 505.521C1235.44 506.583 1235.44 506.583 1236.44 508.521C1236.1 514.854 1236.1 514.854 1233.44 517.521C1230.15 517.877 1228.06 517.817 1225.06 516.396C1223.44 514.521 1223.44 514.521 1223 511.521C1223.44 508.521 1223.44 508.521 1224.5 506.646C1227.54 504.878 1230 505.152 1233.44 505.521Z" fill="#282827"/><path d="M1223.39 483.521C1234.61 483.521 1245.83 483.521 1257.39 483.521C1257.39 483.851 1257.39 484.181 1257.39 484.521C1253.76 484.521 1250.13 484.521 1246.39 484.521C1245.73 486.501 1245.07 488.481 1244.39 490.521C1237.77 491.646 1237.77 491.646 1234.39 490.521C1234.06 488.871 1233.73 487.221 1233.39 485.521C1230.09 485.191 1226.79 484.861 1223.39 484.521C1223.39 484.191 1223.39 483.861 1223.39 483.521Z" fill="#535250"/><path d="M1675.39 608.521C1675.72 609.841 1676.05 611.161 1676.39 612.521C1678.7 612.521 1681.01 612.521 1683.39 612.521C1683.39 612.851 1683.39 613.181 1683.39 613.521C1681.41 613.521 1679.43 613.521 1677.39 613.521C1677.06 622.431 1676.73 631.341 1676.39 640.521C1674.91 641.016 1674.91 641.016 1673.39 641.521C1673.34 637.465 1673.31 633.408 1673.28 629.351C1673.27 627.972 1673.26 626.593 1673.24 625.213C1673.22 623.228 1673.21 621.242 1673.2 619.256C1673.19 618.062 1673.18 616.868 1673.17 615.638C1673.38 612.664 1673.83 611.018 1675.39 608.521Z" fill="#B9A99B"/><path d="M1716.39 596.522C1724.64 595.9 1724.64 595.9 1727.52 598.272C1728.39 600.522 1728.39 600.522 1727.39 604.522C1723.43 604.522 1719.47 604.522 1715.39 604.522C1715.72 601.882 1716.05 599.242 1716.39 596.522Z" fill="#242423"/><path d="M1690.39 467.521C1690.39 469.171 1690.39 470.821 1690.39 472.521C1689.27 472.469 1689.27 472.469 1688.13 472.415C1686.65 472.375 1686.65 472.375 1685.14 472.333C1684.17 472.298 1683.19 472.264 1682.19 472.228C1679.02 472.56 1677.72 473.407 1675.39 475.521C1675.67 472.223 1676.24 470.705 1678.39 468.146C1682.6 465.867 1685.82 466.605 1690.39 467.521Z" fill="#434342"/><path d="M1631.39 649.521C1632.27 649.727 1632.27 649.727 1633.17 649.937C1639.81 651.388 1646.24 651.929 1653.02 652.146C1654.02 652.185 1655.02 652.224 1656.06 652.264C1658.5 652.357 1660.95 652.443 1663.39 652.521C1663.39 652.851 1663.39 653.181 1663.39 653.521C1657.45 653.851 1651.51 654.181 1645.39 654.521C1645.39 654.851 1645.39 655.181 1645.39 655.521C1642.09 655.521 1638.79 655.521 1635.39 655.521C1635.39 654.861 1635.39 654.201 1635.39 653.521C1634.07 653.191 1632.75 652.861 1631.39 652.521C1631.39 651.531 1631.39 650.541 1631.39 649.521Z" fill="#B8A99B"/><path d="M1616.39 505.521C1629.06 505.152 1629.06 505.152 1634.39 507.521C1634.39 508.511 1634.39 509.501 1634.39 510.521C1629.47 510.688 1625.89 510.769 1621.39 508.521C1621.39 507.861 1621.39 507.201 1621.39 506.521C1619.74 506.521 1618.09 506.521 1616.39 506.521C1616.39 506.191 1616.39 505.861 1616.39 505.521Z" fill="#171717"/><path d="M1686.39 466.522C1696 465.957 1696 465.957 1700.39 469.522C1700.72 470.182 1701.05 470.842 1701.39 471.522C1700.73 472.182 1700.07 472.842 1699.39 473.522C1699.39 472.862 1699.39 472.202 1699.39 471.522C1698.4 472.017 1698.4 472.017 1697.39 472.522C1695.06 472.563 1692.72 472.565 1690.39 472.522C1690.29 471.904 1690.19 471.285 1690.08 470.647C1689.52 468.157 1689.52 468.157 1686.39 466.522Z" fill="#31302F"/><path d="M1520.39 348.521C1524.68 348.521 1528.97 348.521 1533.39 348.521C1531.39 352.521 1531.39 352.521 1529.39 355.521C1528.83 354.717 1528.28 353.913 1527.7 353.084C1525.17 350.279 1524.07 349.828 1520.39 349.521C1520.39 349.191 1520.39 348.861 1520.39 348.521Z" fill="#292929"/><path d="M1267.39 500.521C1269.07 500.808 1270.74 501.139 1272.39 501.521C1272.06 503.171 1271.73 504.821 1271.39 506.521C1269.74 506.521 1268.09 506.521 1266.39 506.521C1266.35 504.855 1266.35 503.188 1266.39 501.521C1266.72 501.191 1267.05 500.861 1267.39 500.521Z" fill="#1D1E1D"/><path d="M1274.39 494.521C1276.04 494.851 1277.69 495.181 1279.39 495.521C1279.06 497.171 1278.73 498.821 1278.39 500.521C1276.74 500.191 1275.09 499.861 1273.39 499.521C1273.72 497.871 1274.05 496.221 1274.39 494.521Z" fill="#232323"/><path d="M1261.39 493.521C1262.71 494.181 1264.03 494.841 1265.39 495.521C1265.06 496.841 1264.73 498.161 1264.39 499.521C1263.07 499.851 1261.75 500.181 1260.39 500.521C1259.77 498.146 1259.77 498.146 1259.39 495.521C1260.05 494.861 1260.71 494.201 1261.39 493.521Z" fill="#262626"/><path d="M1267.39 487.521C1269.04 487.851 1270.69 488.181 1272.39 488.521C1272.06 490.171 1271.73 491.821 1271.39 493.521C1269.74 493.191 1268.09 492.861 1266.39 492.521C1266.72 490.871 1267.05 489.221 1267.39 487.521Z" fill="#212221"/><path d="M1518.39 366.521C1520.07 366.808 1521.74 367.139 1523.39 367.521C1523.39 368.841 1523.39 370.161 1523.39 371.521C1521.74 371.851 1520.09 372.181 1518.39 372.521C1518.01 370.865 1517.68 369.197 1517.39 367.521C1517.72 367.191 1518.05 366.861 1518.39 366.521Z" fill="#C3C0BE"/><path d="M1622.14 504.271C1623.31 504.307 1624.48 504.343 1625.69 504.38C1626.58 504.427 1627.47 504.473 1628.39 504.521C1628.39 504.851 1628.39 505.181 1628.39 505.521C1627.64 505.547 1626.9 505.572 1626.13 505.599C1620.09 505.805 1620.09 505.805 1614.83 508.396C1613.68 510.1 1612.53 511.809 1611.39 513.521C1611.04 510.363 1611.07 508.962 1612.98 506.364C1616.19 503.911 1618.16 504.111 1622.14 504.271Z" fill="#4D4B49"/><path d="M1189.39 533.521C1191.04 535.171 1192.69 536.821 1194.39 538.521C1191.92 537.531 1191.92 537.531 1189.39 536.521C1189.39 535.531 1189.39 534.541 1189.39 533.521ZM1174.39 537.521C1179.67 537.521 1184.95 537.521 1190.39 537.521C1190.39 537.851 1190.39 538.181 1190.39 538.521C1185.11 538.521 1179.83 538.521 1174.39 538.521C1174.39 538.191 1174.39 537.861 1174.39 537.521Z" fill="#B8926F"/><path d="M1675.39 623.521C1675.72 623.521 1676.05 623.521 1676.39 623.521C1676.39 629.131 1676.39 634.741 1676.39 640.521C1675.4 640.851 1674.41 641.181 1673.39 641.521C1673.39 640.201 1673.39 638.881 1673.39 637.521C1674.05 637.521 1674.71 637.521 1675.39 637.521C1675.39 632.901 1675.39 628.281 1675.39 623.521Z" fill="#B09F90"/><path d="M1517.39 489.521C1519.04 489.521 1520.69 489.521 1522.39 489.521C1522.06 491.171 1521.73 492.821 1521.39 494.521C1520.07 494.191 1518.75 493.861 1517.39 493.521C1517.39 492.201 1517.39 490.881 1517.39 489.521Z" fill="#7F7D7A"/><path d="M1248.39 494.521C1249.71 495.181 1251.03 495.841 1252.39 496.521C1252.06 497.511 1251.73 498.501 1251.39 499.521C1249.74 499.191 1248.09 498.861 1246.39 498.521C1247.05 497.201 1247.71 495.881 1248.39 494.521Z" fill="#2A2B2A"/><path d="M1228.8 494.995C1230.84 494.961 1230.84 494.961 1232.92 494.926C1233.26 496.201 1233.6 497.476 1233.95 498.789C1232.27 498.898 1230.6 499.006 1228.87 499.118C1228.84 497.757 1228.82 496.397 1228.8 494.995Z" fill="#272726"/><path d="M1664.39 605.521C1667.27 605.334 1667.27 605.334 1670.39 605.521C1671.05 606.511 1671.71 607.501 1672.39 608.521C1670.41 608.521 1668.43 608.521 1666.39 608.521C1666.39 607.861 1666.39 607.201 1666.39 606.521C1665.73 606.191 1665.07 605.861 1664.39 605.521Z" fill="#A79583"/><path d="M1520.39 348.521C1524.68 348.521 1528.97 348.521 1533.39 348.521C1533.06 349.511 1532.73 350.501 1532.39 351.521C1531.73 351.191 1531.07 350.861 1530.39 350.521C1528.69 350.295 1526.98 350.113 1525.27 349.959C1524.36 349.875 1523.45 349.791 1522.51 349.705C1521.81 349.644 1521.11 349.584 1520.39 349.521C1520.39 349.191 1520.39 348.861 1520.39 348.521Z" fill="#232423"/></svg>